<?xml version="1.0" encoding="utf-8"?>
<!-- Generator: Adobe Illustrator 15.1.0, SVG Export Plug-In  -->
<!DOCTYPE svg PUBLIC "-//W3C//DTD SVG 1.1//EN" "http://www.w3.org/Graphics/SVG/1.1/DTD/svg11.dtd" [
	<!ENTITY ns_flows "http://ns.adobe.com/Flows/1.0/">
]>
<svg version="1.1"
	 xmlns="http://www.w3.org/2000/svg" xmlns:xlink="http://www.w3.org/1999/xlink" xmlns:a="http://ns.adobe.com/AdobeSVGViewerExtensions/3.0/"
	 x="0px" y="0px" width="193px" height="66px" viewBox="0 0 193 66" overflow="visible" enable-background="new 0 0 193 66"
	 xml:space="preserve">
<defs>
</defs>
<rect x="0.773" y="0.974" fill="#EF3D23" width="64.193" height="64.705"/>
<rect x="64.967" y="0.658" width="63.38" height="65.023"/>
<rect x="128.347" y="0.659" fill="#4267B1" width="64.169" height="64.681"/>
<path fill="#FFFFFF" d="M40.348,49.361V30.66c0-2.759-0.53-4.774-1.593-6.042c-1.063-1.27-2.796-1.904-5.205-1.904
	c-1.114,0-2.303,0.312-3.568,0.937c-1.263,0.625-2.252,1.4-2.958,2.327v23.384h-7.57V16.872h5.457l1.394,3.029
	c2.061-2.383,5.105-3.575,9.129-3.575c3.856,0,6.903,1.154,9.138,3.465c2.235,2.312,3.352,5.536,3.352,9.675v19.894H40.348z"/>
<path fill="#FFFFFF" d="M94.37,22.804c3.487,0,5.988,0.783,7.501,2.344c1.51,1.562,2.264,4.258,2.264,8.089
	c0,3.59-0.759,6.215-2.283,7.879c-1.52,1.662-4.021,2.494-7.51,2.494c-1.833,0-3.435-0.555-4.806-1.664V24.921
	C90.947,23.511,92.557,22.804,94.37,22.804z M96.061,50.001c4.953,0,8.861-1.436,11.723-4.305c2.864-2.871,4.292-6.963,4.292-12.277
	c0-11.396-5.177-17.093-15.53-17.093c-2.771,0-5.105,0.909-7.009,2.729v-2.183h-7.573v45.174h7.573V48.573
	C91.497,49.525,93.672,50.001,96.061,50.001z"/>
<path fill="#FFFFFF" d="M168.418,23.99c-1.348-0.852-2.821-1.277-4.428-1.277c-1.754,0-3.308,0.797-4.662,2.387
	c-1.362,1.592-2.036,3.535-2.036,5.831v18.43h-7.576V16.872h7.576v3.104c2.108-2.433,4.916-3.649,8.415-3.649
	c2.575,0,4.544,0.393,5.911,1.18L168.418,23.99z"/>
<rect x="0.729" y="0.729" fill="none" stroke="#FFFFFF" stroke-width="1.4593" width="191.747" height="64.951"/>
</svg>
