<?xml version="1.0" encoding="utf-8"?>
<!-- Generator: Adobe Illustrator 15.1.0, SVG Export Plug-In  -->
<!DOCTYPE svg PUBLIC "-//W3C//DTD SVG 1.1//EN" "http://www.w3.org/Graphics/SVG/1.1/DTD/svg11.dtd" [
	<!ENTITY ns_flows "http://ns.adobe.com/Flows/1.0/">
]>
<svg version="1.1"
	 xmlns="http://www.w3.org/2000/svg" xmlns:xlink="http://www.w3.org/1999/xlink" xmlns:a="http://ns.adobe.com/AdobeSVGViewerExtensions/3.0/"
	 x="0px" y="0px" width="390px" height="130px" viewBox="0 0 390 130" overflow="visible" enable-background="new 0 0 390 130"
	 xml:space="preserve">
<defs>
</defs>
<rect fill="#EF3D23" width="130" height="130"/>
<rect x="130" fill="#010101" width="130" height="130"/>
<rect x="260" fill="#4267B1" width="130" height="130"/>
<path fill="#FFFFFF" d="M79,98V59.852c0-5.651-0.922-9.777-3.102-12.377s-5.649-3.9-10.584-3.9c-2.281,0-4.691,0.638-7.283,1.919
	C55.446,46.774,53,48.362,52,50.262V98H37V32h10.7l2.856,6.009c4.22-4.881,10.455-7.422,18.699-7.422
	c7.9,0,14.222,2.318,18.799,7.051C92.633,42.375,95,48.931,95,57.408V98H79z"/>
<path fill="#FFFFFF" d="M190.691,43.762c7.146,0,12.163,1.604,15.261,4.803c3.095,3.199,4.583,8.722,4.583,16.569
	c0,7.353-1.579,12.731-4.701,16.142c-3.113,3.401-8.042,5.105-15.188,5.105c-3.756,0-7.646-1.136-9.646-3.405V48.098
	C183,45.21,186.979,43.762,190.691,43.762z M194.155,99.471c10.144,0,18.044-2.938,23.907-8.819
	c5.865-5.878,8.738-14.257,8.738-25.144c0-23.346-10.418-35.018-31.631-35.018c-5.674,0-11.169,1.864-14.169,5.593V32h-16v92h16
	V96.548C185,98.494,189.259,99.471,194.155,99.471z"/>
<path fill="#FFFFFF" d="M342.16,46.19c-2.764-1.744-5.779-2.615-9.072-2.615c-3.594,0-6.957,1.631-9.732,4.889
	C320.568,51.726,319,55.703,319,60.405V98h-15V32h15v5.966c5-4.982,10.256-7.477,17.426-7.477c5.27,0,9.395,0.81,12.197,2.421
	L342.16,46.19z"/>
</svg>
