<?xml version="1.0" encoding="utf-8"?>
<!-- Generator: Adobe Illustrator 15.1.0, SVG Export Plug-In  -->
<!DOCTYPE svg PUBLIC "-//W3C//DTD SVG 1.1//EN" "http://www.w3.org/Graphics/SVG/1.1/DTD/svg11.dtd" [
	<!ENTITY ns_flows "http://ns.adobe.com/Flows/1.0/">
]>
<svg version="1.1"
	 xmlns="http://www.w3.org/2000/svg" xmlns:xlink="http://www.w3.org/1999/xlink" xmlns:a="http://ns.adobe.com/AdobeSVGViewerExtensions/3.0/"
	 x="0px" y="0px" width="138px" height="133px" viewBox="-1.497 0 138 133"
	 overflow="visible" enable-background="new -1.497 0 138 133" xml:space="preserve">
<defs>
</defs>
<path fill="#FFFFFF" d="M10.415,31.73l2.592-3.936c2.784,2.064,5.713,3.12,8.305,3.12c2.496,0,3.937-1.056,3.937-2.736v-0.096
	c0-1.968-2.688-2.64-5.664-3.552c-3.744-1.056-7.921-2.592-7.921-7.441v-0.096c0-4.8,3.984-7.729,9.024-7.729
	c3.169,0,6.625,1.104,9.313,2.88l-2.305,4.128c-2.448-1.488-5.04-2.4-7.152-2.4c-2.256,0-3.553,1.056-3.553,2.496v0.096
	c0,1.872,2.736,2.64,5.713,3.6c3.696,1.152,7.873,2.833,7.873,7.393v0.096c0,5.329-4.129,7.969-9.409,7.969
	C17.567,35.523,13.583,34.227,10.415,31.73z"/>
<path fill="#FFFFFF" d="M32.734,22.514v-0.096c0-7.249,5.761-13.249,13.537-13.249s13.489,5.904,13.489,13.153v0.096
	c0,7.201-5.761,13.201-13.585,13.201C38.447,35.619,32.734,29.714,32.734,22.514z M53.952,22.514v-0.096
	c0-4.464-3.216-8.161-7.776-8.161c-4.656,0-7.633,3.648-7.633,8.064v0.096c0,4.417,3.216,8.113,7.729,8.113
	C50.976,30.531,53.952,26.882,53.952,22.514z"/>
<path fill="#FFFFFF" d="M61.871,22.514v-0.096c0-7.201,5.568-13.249,13.201-13.249c4.752,0,7.729,1.776,10.129,4.368l-3.648,3.888
	c-1.776-1.872-3.648-3.168-6.529-3.168c-4.224,0-7.345,3.648-7.345,8.064v0.096c0,4.512,3.121,8.113,7.585,8.113
	c2.736,0,4.753-1.249,6.577-3.121l3.504,3.457c-2.496,2.784-5.425,4.752-10.369,4.752C67.439,35.619,61.871,29.714,61.871,22.514z"
	/>
<path fill="#FFFFFF" d="M88.366,0.288h6.241v5.521h-6.241V0.288z M88.606,9.697h5.809v25.346h-5.809V9.697z"/>
<path fill="#FFFFFF" d="M97.918,27.746V27.65c0-5.473,4.272-8.161,10.465-8.161c2.832,0,4.849,0.432,6.816,1.056v-0.624
	c0-3.601-2.208-5.521-6.288-5.521c-2.832,0-4.944,0.624-7.249,1.584l-1.536-4.561c2.784-1.248,5.521-2.064,9.553-2.064
	c3.793,0,6.625,1.008,8.401,2.832c1.872,1.824,2.736,4.513,2.736,7.825v15.025h-5.665v-3.168c-1.728,2.064-4.368,3.696-8.257,3.696
	C102.143,35.571,97.918,32.835,97.918,27.746z M115.296,25.922v-1.729c-1.488-0.576-3.457-1.008-5.761-1.008
	c-3.744,0-5.952,1.584-5.952,4.224v0.096c0,2.448,2.16,3.84,4.944,3.84C112.367,31.347,115.296,29.139,115.296,25.922z"/>
<path fill="#FFFFFF" d="M125.71,0h5.809v35.043h-5.809V0z"/>
<path fill="#FFFFFF" d="M0,54.697h5.809v3.84c1.632-2.256,3.84-4.368,7.729-4.368c3.648,0,6.24,1.776,7.584,4.464
	c2.017-2.688,4.705-4.464,8.545-4.464c5.521,0,8.881,3.504,8.881,9.697v16.177h-5.809V65.642c0-4.032-1.872-6.192-5.137-6.192
	c-3.168,0-5.424,2.208-5.424,6.289v14.305h-5.809V65.594c0-3.937-1.92-6.145-5.137-6.145c-3.216,0-5.424,2.4-5.424,6.289v14.305H0
	V54.697z"/>
<path fill="#FFFFFF" d="M41.808,67.466V67.37c0-7.249,5.136-13.201,12.385-13.201c8.064,0,12.145,6.336,12.145,13.633
	c0,0.528-0.048,1.056-0.096,1.632H47.615c0.625,4.128,3.553,6.433,7.297,6.433c2.832,0,4.849-1.056,6.865-3.024l3.408,3.024
	c-2.4,2.88-5.713,4.752-10.369,4.752C47.472,80.619,41.808,75.291,41.808,67.466z M60.577,65.594
	c-0.385-3.744-2.593-6.673-6.433-6.673c-3.553,0-6.049,2.736-6.577,6.673H60.577z"/>
<path fill="#FFFFFF" d="M68.495,67.418v-0.096c0-8.401,5.712-13.153,11.761-13.153c4.177,0,6.816,2.064,8.641,4.464V45h5.809v35.043
	h-5.809v-4.225c-1.872,2.641-4.512,4.752-8.641,4.752C74.304,80.571,68.495,75.818,68.495,67.418z M88.993,67.418v-0.096
	c0-4.896-3.457-8.113-7.345-8.113c-3.984,0-7.297,3.072-7.297,8.113v0.096c0,4.896,3.36,8.113,7.297,8.113
	C85.536,75.531,88.993,72.266,88.993,67.418z"/>
<path fill="#FFFFFF" d="M99.694,45.288h6.24v5.521h-6.24V45.288z M99.935,54.697h5.809v25.346h-5.809V54.697z"/>
<path fill="#FFFFFF" d="M109.246,72.746V72.65c0-5.473,4.272-8.161,10.465-8.161c2.832,0,4.849,0.432,6.816,1.056v-0.624
	c0-3.601-2.208-5.521-6.288-5.521c-2.832,0-4.944,0.624-7.249,1.584l-1.536-4.561c2.784-1.248,5.521-2.064,9.553-2.064
	c3.793,0,6.625,1.008,8.401,2.832c1.872,1.824,2.736,4.513,2.736,7.825v15.025h-5.665v-3.168c-1.728,2.064-4.368,3.696-8.257,3.696
	C113.471,80.571,109.246,77.835,109.246,72.746z M126.624,70.922v-1.729c-1.488-0.576-3.457-1.008-5.761-1.008
	c-3.744,0-5.952,1.584-5.952,4.224v0.096c0,2.448,2.16,3.84,4.944,3.84C123.695,76.347,126.624,74.139,126.624,70.922z"/>
<path opacity="0.8" fill="#FFFFFF" d="M33.84,112.706v-0.096c0-8.113,5.904-12.913,11.857-12.913c4.608,0,7.584,2.496,9.505,5.28V90
	h3.696v35.043h-3.696v-4.992c-2.017,2.976-4.945,5.52-9.505,5.52C39.744,125.571,33.84,120.867,33.84,112.706z M55.346,112.658
	v-0.096c0-5.712-4.368-9.553-8.977-9.553c-4.801,0-8.737,3.552-8.737,9.553v0.096c0,5.857,4.081,9.601,8.737,9.601
	C50.978,122.259,55.346,118.371,55.346,112.658z"/>
<path opacity="0.8" fill="#FFFFFF" d="M63.215,112.706v-0.096c0-7.153,5.041-12.913,11.905-12.913
	c7.345,0,11.569,5.856,11.569,13.105c0,0.48,0,0.768-0.049,1.2H66.959c0.528,5.376,4.32,8.401,8.737,8.401
	c3.408,0,5.809-1.392,7.824-3.504l2.305,2.064c-2.496,2.785-5.521,4.657-10.226,4.657C68.783,125.619,63.215,120.387,63.215,112.706
	z M82.944,111.266c-0.384-4.512-2.976-8.449-7.92-8.449c-4.32,0-7.585,3.601-8.065,8.449H82.944z"/>
<path opacity="0.8" fill="#FFFFFF" d="M88.703,121.875l1.872-2.64c2.688,2.016,5.664,3.168,8.593,3.168
	c2.977,0,5.137-1.536,5.137-3.937v-0.096c0-2.497-2.929-3.457-6.192-4.369c-3.889-1.104-8.209-2.448-8.209-7.009v-0.096
	c0-4.272,3.552-7.104,8.448-7.104c3.024,0,6.385,1.056,8.929,2.736l-1.68,2.785c-2.305-1.488-4.944-2.4-7.345-2.4
	c-2.928,0-4.801,1.536-4.801,3.6v0.096c0,2.352,3.072,3.264,6.385,4.272c3.841,1.152,7.969,2.64,7.969,7.104v0.096
	c0,4.704-3.889,7.44-8.833,7.44C95.424,125.523,91.487,124.131,88.703,121.875z"/>
<path opacity="0.8" fill="#FFFFFF" d="M112.271,90h3.696v24.194l13.393-13.969h4.608l-10.417,10.657l10.753,14.161h-4.416
	l-8.881-11.569l-5.04,5.088v6.48h-3.696V90z"/>
</svg>
