<?xml version="1.0" encoding="utf-8"?>
<!-- Generator: Adobe Illustrator 15.1.0, SVG Export Plug-In  -->
<!DOCTYPE svg PUBLIC "-//W3C//DTD SVG 1.1//EN" "http://www.w3.org/Graphics/SVG/1.1/DTD/svg11.dtd" [
	<!ENTITY ns_flows "http://ns.adobe.com/Flows/1.0/">
]>
<svg version="1.1"
	 xmlns="http://www.w3.org/2000/svg" xmlns:xlink="http://www.w3.org/1999/xlink" xmlns:a="http://ns.adobe.com/AdobeSVGViewerExtensions/3.0/"
	 x="0px" y="0px" width="378px" height="54px" viewBox="-1.584 -5.757 378 54"
	 overflow="visible" enable-background="new -1.584 -5.757 378 54" xml:space="preserve">
<defs>
</defs>
<path fill="#FFFFFF" d="M0,31.73l2.593-3.936c2.784,2.064,5.712,3.12,8.305,3.12c2.496,0,3.937-1.056,3.937-2.736v-0.096
	c0-1.968-2.688-2.64-5.665-3.552c-3.744-1.056-7.921-2.592-7.921-7.441v-0.096c0-4.8,3.984-7.729,9.025-7.729
	c3.168,0,6.624,1.104,9.312,2.88l-2.304,4.128c-2.448-1.488-5.041-2.4-7.153-2.4c-2.256,0-3.552,1.056-3.552,2.496v0.096
	c0,1.872,2.736,2.64,5.712,3.6c3.696,1.152,7.873,2.833,7.873,7.393v0.096c0,5.329-4.128,7.969-9.409,7.969
	C7.153,35.523,3.169,34.227,0,31.73z"/>
<path fill="#FFFFFF" d="M22.32,22.514v-0.096c0-7.249,5.76-13.249,13.537-13.249c7.776,0,13.489,5.904,13.489,13.153v0.096
	c0,7.201-5.761,13.201-13.586,13.201C28.032,35.619,22.32,29.714,22.32,22.514z M43.538,22.514v-0.096
	c0-4.464-3.217-8.161-7.777-8.161c-4.656,0-7.633,3.648-7.633,8.064v0.096c0,4.417,3.217,8.113,7.729,8.113
	C40.562,30.531,43.538,26.882,43.538,22.514z"/>
<path fill="#FFFFFF" d="M51.456,22.514v-0.096c0-7.201,5.568-13.249,13.201-13.249c4.753,0,7.729,1.776,10.129,4.368l-3.648,3.888
	c-1.776-1.872-3.648-3.168-6.528-3.168c-4.225,0-7.345,3.648-7.345,8.064v0.096c0,4.512,3.12,8.113,7.585,8.113
	c2.736,0,4.752-1.249,6.576-3.121l3.504,3.457c-2.496,2.784-5.424,4.752-10.368,4.752C57.024,35.619,51.456,29.714,51.456,22.514z"
	/>
<path fill="#FFFFFF" d="M77.952,0.288h6.24v5.521h-6.24V0.288z M78.192,9.697h5.809v25.346h-5.809V9.697z"/>
<path fill="#FFFFFF" d="M87.504,27.746V27.65c0-5.473,4.272-8.161,10.465-8.161c2.832,0,4.848,0.432,6.816,1.056v-0.624
	c0-3.601-2.208-5.521-6.289-5.521c-2.832,0-4.944,0.624-7.248,1.584l-1.536-4.561c2.784-1.248,5.521-2.064,9.553-2.064
	c3.792,0,6.624,1.008,8.4,2.832c1.872,1.824,2.736,4.513,2.736,7.825v15.025h-5.664v-3.168c-1.729,2.064-4.368,3.696-8.257,3.696
	C91.728,35.571,87.504,32.835,87.504,27.746z M104.881,25.922v-1.729c-1.488-0.576-3.456-1.008-5.761-1.008
	c-3.744,0-5.952,1.584-5.952,4.224v0.096c0,2.448,2.16,3.84,4.944,3.84C101.953,31.347,104.881,29.139,104.881,25.922z"/>
<path fill="#FFFFFF" d="M115.295,0h5.809v35.043h-5.809V0z"/>
<path fill="#FFFFFF" d="M133.486,9.697h5.809v3.84c1.632-2.256,3.841-4.368,7.729-4.368c3.648,0,6.24,1.776,7.585,4.464
	c2.016-2.688,4.704-4.464,8.545-4.464c5.521,0,8.881,3.504,8.881,9.697v16.177h-5.809V20.642c0-4.032-1.872-6.192-5.137-6.192
	c-3.168,0-5.425,2.208-5.425,6.289v14.305h-5.809V20.594c0-3.937-1.92-6.145-5.136-6.145c-3.217,0-5.425,2.4-5.425,6.289v14.305
	h-5.809V9.697z"/>
<path fill="#FFFFFF" d="M175.295,22.466V22.37c0-7.249,5.136-13.201,12.385-13.201c8.064,0,12.145,6.336,12.145,13.633
	c0,0.528-0.048,1.056-0.096,1.632h-18.626c0.625,4.128,3.553,6.433,7.297,6.433c2.832,0,4.849-1.056,6.865-3.024l3.408,3.024
	c-2.4,2.88-5.713,4.752-10.369,4.752C180.959,35.619,175.295,30.291,175.295,22.466z M194.064,20.594
	c-0.385-3.744-2.593-6.673-6.433-6.673c-3.553,0-6.049,2.736-6.577,6.673H194.064z"/>
<path fill="#FFFFFF" d="M201.981,22.418v-0.096c0-8.401,5.713-13.153,11.761-13.153c4.177,0,6.817,2.064,8.642,4.464V0h5.808v35.043
	h-5.808v-4.225c-1.873,2.641-4.513,4.752-8.642,4.752C207.79,35.571,201.981,30.818,201.981,22.418z M222.479,22.418v-0.096
	c0-4.896-3.456-8.113-7.345-8.113c-3.984,0-7.297,3.072-7.297,8.113v0.096c0,4.896,3.36,8.113,7.297,8.113
	C219.023,30.531,222.479,27.266,222.479,22.418z"/>
<path fill="#FFFFFF" d="M233.181,0.288h6.241v5.521h-6.241V0.288z M233.421,9.697h5.809v25.346h-5.809V9.697z"/>
<path fill="#FFFFFF" d="M242.732,27.746V27.65c0-5.473,4.272-8.161,10.465-8.161c2.833,0,4.849,0.432,6.817,1.056v-0.624
	c0-3.601-2.209-5.521-6.289-5.521c-2.832,0-4.944,0.624-7.248,1.584l-1.536-4.561c2.784-1.248,5.521-2.064,9.553-2.064
	c3.792,0,6.624,1.008,8.4,2.832c1.872,1.824,2.736,4.513,2.736,7.825v15.025h-5.664v-3.168c-1.729,2.064-4.369,3.696-8.257,3.696
	C246.957,35.571,242.732,32.835,242.732,27.746z M260.11,25.922v-1.729c-1.488-0.576-3.456-1.008-5.761-1.008
	c-3.744,0-5.952,1.584-5.952,4.224v0.096c0,2.448,2.16,3.84,4.944,3.84C257.182,31.347,260.11,29.139,260.11,25.922z"/>
<path opacity="0.8" fill="#FFFFFF" d="M276.428,22.706V22.61c0-8.113,5.904-12.913,11.856-12.913c4.608,0,7.585,2.496,9.505,5.28V0
	h3.696v35.043h-3.696v-4.992c-2.016,2.976-4.944,5.52-9.505,5.52C282.332,35.571,276.428,30.867,276.428,22.706z M297.934,22.658
	v-0.096c0-5.712-4.368-9.553-8.977-9.553c-4.801,0-8.737,3.552-8.737,9.553v0.096c0,5.857,4.08,9.601,8.737,9.601
	C293.565,32.259,297.934,28.371,297.934,22.658z"/>
<path opacity="0.8" fill="#FFFFFF" d="M305.803,22.706V22.61c0-7.153,5.041-12.913,11.905-12.913
	c7.345,0,11.569,5.856,11.569,13.105c0,0.48,0,0.768-0.048,1.2h-19.682c0.527,5.376,4.32,8.401,8.736,8.401
	c3.408,0,5.809-1.392,7.825-3.504l2.304,2.064c-2.496,2.785-5.521,4.657-10.225,4.657C311.372,35.619,305.803,30.387,305.803,22.706
	z M325.533,21.266c-0.385-4.512-2.977-8.449-7.921-8.449c-4.32,0-7.585,3.601-8.064,8.449H325.533z"/>
<path opacity="0.8" fill="#FFFFFF" d="M331.291,31.875l1.872-2.64c2.688,2.016,5.664,3.168,8.593,3.168
	c2.976,0,5.137-1.536,5.137-3.937v-0.096c0-2.497-2.929-3.457-6.193-4.369c-3.888-1.104-8.208-2.448-8.208-7.009v-0.096
	c0-4.272,3.552-7.104,8.448-7.104c3.024,0,6.385,1.056,8.929,2.736l-1.68,2.785c-2.305-1.488-4.944-2.4-7.345-2.4
	c-2.929,0-4.801,1.536-4.801,3.6v0.096c0,2.352,3.072,3.264,6.385,4.272c3.84,1.152,7.969,2.64,7.969,7.104v0.096
	c0,4.704-3.889,7.44-8.833,7.44C338.012,35.523,334.075,34.131,331.291,31.875z"/>
<path opacity="0.8" fill="#FFFFFF" d="M354.858,0h3.696v24.194l13.394-13.969h4.608L366.14,20.882l10.753,14.161h-4.416
	l-8.881-11.569l-5.041,5.088v6.48h-3.696V0z"/>
</svg>
