<?xml version="1.0" encoding="utf-8"?>
<!-- Generator: Adobe Illustrator 21.1.0, SVG Export Plug-In . SVG Version: 6.00 Build 0)  -->
<svg version="1.1" id="Layer_1" xmlns="http://www.w3.org/2000/svg" xmlns:xlink="http://www.w3.org/1999/xlink" x="0px" y="0px"
	 viewBox="0 0 542.6 193.8" style="enable-background:new 0 0 542.6 193.8;" xml:space="preserve">
<style type="text/css">
	.st0{fill:#FFFFFF;}
	.st1{fill:#F15E25;}
	.st2{fill:#0D0E19;}
	.st3{fill:#4E85C5;}
</style>
<g>
	<path class="st0" d="M542.5,194.1H0.2V0h542.3V194.1z M20.2,174.1h502.3V20H20.2V174.1z"/>
</g>
<rect x="10.2" y="10" class="st1" width="174.1" height="174.1"/>
<rect x="184.3" y="10" class="st2" width="174.1" height="174.1"/>
<rect x="358.4" y="10" class="st3" width="174.1" height="174.1"/>
<path class="st0" d="M115.9,141.4V90.1c0-7.6-1.5-13.1-4.4-16.6c-2.9-3.5-7.7-5.2-14.3-5.2c-3.1,0-6.3,0.9-9.8,2.6
	c-3.5,1.7-6.2,3.8-8.1,6.4v64.2H58.5V52.2h15l3.8,8.3c5.7-6.5,14-9.8,25.1-9.8c10.6,0,19,3.2,25.1,9.5c6.1,6.4,9.2,15.2,9.2,26.6
	v54.7H115.9z"/>
<path class="st0" d="M265.1,68.5c9.6,0,16.5,2.1,20.6,6.4c4.2,4.3,6.2,11.7,6.2,22.2c0,9.9-2.1,17.1-6.3,21.6
	c-4.2,4.6-11,6.9-20.6,6.9c-5,0-9.4-1.5-13.2-4.6V74.3C255.7,70.4,260.1,68.5,265.1,68.5z M269.7,143.2c13.6,0,24.3-3.9,32.2-11.8
	c7.9-7.9,11.8-19.1,11.8-33.7c0-31.3-14.2-47-42.7-47c-7.6,0-14,2.5-19.3,7.5v-6H231v120.5h20.8v-33.4
	C257.2,141.9,263.2,143.2,269.7,143.2z"/>
<path class="st0" d="M468.5,71.7c-3.7-2.3-7.8-3.5-12.2-3.5c-4.8,0-9.1,2.2-12.8,6.6c-3.7,4.4-5.6,9.7-5.6,16v50.6h-20.8V52.2h20.8
	v8.5c5.8-6.7,13.5-10,23.1-10c7.1,0,12.5,1.1,16.2,3.2L468.5,71.7z"/>
</svg>
