<?xml version="1.0" encoding="UTF-8" standalone="no"?>
<svg viewBox="0 0 257 33" version="1.1" xmlns="http://www.w3.org/2000/svg" xmlns:xlink="http://www.w3.org/1999/xlink" xmlns:sketch="http://www.bohemiancoding.com/sketch/ns">
    <!-- Generator: Sketch 3.2.2 (9983) - http://www.bohemiancoding.com/sketch -->
    <title>Elise Goes East</title>
    <desc>Created with Sketch.</desc>
    <defs></defs>
    <g id="Page-1" stroke="none" stroke-width="1" fill="none" fill-rule="evenodd" sketch:type="MSPage">
        <path d="M28.304,32.592 L28.304,29.244 L9.62,29.244 L9.62,27.048 L27.332,27.048 L27.332,18.48 L5.336,18.48 L5.336,21.828 L23.084,21.828 L23.084,24.024 L5.408,24.024 L5.408,32.592 L28.304,32.592 Z M21.032,16.752 L21.032,1.344 L17.108,1.344 L17.108,7.536 L14.768,7.536 C14.084,4.44 11.6,2.028 7.748,2.028 C3.248,2.028 0.512,5.412 0.512,9.228 C0.512,13.008 3.248,16.392 7.748,16.392 C11.6,16.392 14.084,13.944 14.768,10.92 L17.108,10.92 L17.108,16.752 L21.032,16.752 Z M27.332,16.968 L27.332,0.768 L23.336,0.768 L23.336,16.968 L27.332,16.968 Z M11.096,9.228 C11.096,11.496 9.62,12.972 7.748,12.972 C5.912,12.972 4.436,11.496 4.436,9.228 C4.436,6.924 5.912,5.412 7.748,5.412 C9.62,5.412 11.096,6.924 11.096,9.228 L11.096,9.228 Z M53.54,0.768 L53.54,32.844 L57.716,32.844 L57.716,0.768 L53.54,0.768 Z M50.732,21.108 C46.628,21.864 40.256,22.044 37.196,22.044 L37.196,15.528 L47.672,15.528 L47.672,3.504 L32.876,3.504 L32.876,6.852 L43.424,6.852 L43.424,12.18 L33.02,12.18 L33.02,25.5 L36.404,25.5 C41.84,25.5 47.816,25.14 51.2,24.456 L50.732,21.108 Z M91.34,28.668 L91.34,25.32 L62.36,25.32 L62.36,28.668 L91.34,28.668 Z M90.728,15.528 C85.832,14.7 79.064,10.488 79.064,4.836 L79.064,2.712 L74.672,2.712 L74.672,4.836 C74.672,10.524 68.3,14.772 63.044,15.528 L65.024,18.948 C69.452,17.976 75.176,14.556 76.832,10.236 C78.668,14.448 84.212,17.796 88.604,18.804 L90.728,15.528 Z M123.2,16.572 L123.2,13.08 L118.556,13.08 L118.556,0.768 L114.38,0.768 L114.38,32.844 L118.556,32.844 L118.556,16.572 L123.2,16.572 Z M110.132,4.044 L95.156,4.044 L95.156,7.536 L105.56,7.536 C104.984,13.944 100.196,20.676 93.212,23.88 L95.768,27.048 C105.596,21.72 109.844,13.728 110.132,4.044 L110.132,4.044 Z M159.704,12.684 L159.704,9.336 L142.172,9.336 L142.172,4.872 L159.452,4.872 L159.452,1.488 L137.96,1.488 L137.96,12.684 L146.42,12.684 L146.42,15.78 L134.108,15.78 L134.108,19.128 L163.088,19.128 L163.088,15.78 L150.668,15.78 L150.668,12.684 L159.704,12.684 Z M159.776,26.868 C159.776,23.232 155.708,20.892 148.58,20.892 C141.524,20.892 137.456,23.232 137.456,26.868 C137.456,30.576 141.524,32.88 148.616,32.88 C155.708,32.88 159.776,30.576 159.776,26.868 L159.776,26.868 Z M155.456,26.904 C155.456,28.56 152.756,29.532 148.58,29.532 C144.44,29.532 141.776,28.56 141.776,26.904 C141.776,25.248 144.44,24.24 148.58,24.24 C152.756,24.24 155.456,25.248 155.456,26.904 L155.456,26.904 Z M194.336,8.58 L194.336,5.124 L190.34,5.124 L190.34,0.768 L186.056,0.768 L186.056,19.524 L190.34,19.524 L190.34,15.564 L194.336,15.564 L194.336,12.18 L190.34,12.18 L190.34,8.58 L194.336,8.58 Z M190.7,26.328 C190.7,22.332 186.668,19.812 179.684,19.812 C172.808,19.812 168.74,22.332 168.74,26.328 C168.74,30.252 172.808,32.808 179.684,32.808 C186.668,32.808 190.7,30.252 190.7,26.328 L190.7,26.328 Z M179.684,23.196 C183.968,23.196 186.416,24.384 186.416,26.328 C186.416,28.272 183.968,29.424 179.684,29.424 C175.508,29.424 173.06,28.272 173.06,26.328 C173.06,24.384 175.508,23.196 179.684,23.196 L179.684,23.196 Z M165.392,10.2 C165.392,14.736 169.1,17.58 173.672,17.58 C178.352,17.58 181.988,14.736 181.988,10.2 C181.988,5.736 178.316,2.568 173.672,2.568 C169.028,2.568 165.392,5.808 165.392,10.2 L165.392,10.2 Z M169.496,10.164 C169.496,7.896 171.152,5.988 173.672,5.988 C176.3,5.988 177.956,7.86 177.956,10.164 C177.956,12.612 176.192,14.412 173.672,14.412 C171.188,14.412 169.496,12.648 169.496,10.164 L169.496,10.164 Z M225.368,28.632 L225.368,25.32 L196.388,25.32 L196.388,28.632 L225.368,28.632 Z M222.668,11.352 C222.668,6.456 218.024,3.036 210.896,3.036 C203.804,3.036 199.124,6.456 199.124,11.352 C199.124,16.248 203.804,19.668 210.896,19.668 C218.024,19.668 222.668,16.248 222.668,11.352 L222.668,11.352 Z M218.348,11.388 C218.348,14.34 215.396,16.32 210.896,16.32 C206.396,16.32 203.48,14.34 203.48,11.388 C203.48,8.436 206.396,6.456 210.896,6.456 C215.432,6.456 218.348,8.436 218.348,11.388 L218.348,11.388 Z M253.772,20.496 L253.772,17.112 L235.412,17.112 L235.412,13.224 L252.836,13.224 L252.836,2.82 L231.056,2.82 L231.056,6.168 L248.66,6.168 L248.66,9.876 L231.236,9.876 L231.236,20.496 L239.84,20.496 L239.84,25.5 L227.528,25.5 L227.528,28.848 L256.508,28.848 L256.508,25.5 L244.052,25.5 L244.052,20.496 L253.772,20.496 Z" id="Type-something" fill="#FDFD53" sketch:type="MSShapeGroup"></path>
    </g>
</svg>