<?xml version="1.0" encoding="utf-8"?>
<!-- Generator: Adobe Illustrator 19.0.1, SVG Export Plug-In . SVG Version: 6.00 Build 0)  -->
<svg version="1.1" id="Layer_1" xmlns="http://www.w3.org/2000/svg" xmlns:xlink="http://www.w3.org/1999/xlink" x="0px" y="0px"
	 width="210.7px" height="55.3px" viewBox="0 0 210.7 55.3" style="enable-background:new 0 0 210.7 55.3;" xml:space="preserve">
<style type="text/css">
	.st0{fill:#FFFFFF;}
	.st1{fill:none;stroke:#FFFFFF;stroke-width:1.0657;}
</style>
<g>
	<path class="st0" d="M148,17.7c-0.1,4-0.1,7.9-0.1,11.9c0,3,1.1,4.1,3.3,4.1c1.6,0,3.3-0.8,3.4-4.2l0.1-11.8h5.1L159.7,30
		c-0.1,5-3.4,7.7-8.4,7.7c-4.8,0-8.4-2.2-8.4-7.7c0-4.6,0.1-8.5,0.1-12.3H148z"/>
	<path class="st0" d="M165.7,32.8c1.2,0.4,3.1,0.8,4.5,0.8c1.6,0,3.2-0.3,3.2-2.1c0-1.8-2.3-2-4.6-2.6c-2.3-0.7-4.6-1.9-4.6-5.6
		c0-4.2,4.2-6.1,7.9-6.1c2.2,0,4.2,0.5,6.2,1.3l-1.4,3.6c-1.3-0.5-3.1-0.8-4.1-0.8c-2.4,0-3.3,0.9-3.3,2.1c0,0.8,0.6,1.5,2.8,1.9
		c5,1.1,6.3,3.1,6.3,5.9c0,4.8-3.9,6.6-8.2,6.6c-2,0-4.1-0.4-6-1.1L165.7,32.8z"/>
	<path class="st0" d="M183.7,17.7h5.1l-0.2,19.5h-4.8L183.7,17.7z"/>
	<path class="st0" d="M209.1,22.2c-1.1-0.7-2.8-1-4-1c-3.7,0-6.4,2.4-6.4,6.2c0,3.5,2.2,6.3,5.9,6.3c2,0,2.8-0.5,4.4-1l1.5,3.6
		c-1.4,0.8-3.6,1.4-6.4,1.4c-6.6,0-10.5-4.2-10.5-10.5c0-6.1,4.1-10.1,11.2-10.1c2.6,0,4.8,0.6,6.1,1.4L209.1,22.2z"/>
</g>
<path class="st0" d="M133.1,17.6c-2.1,0-4.4,0.2-5.6,2.4c0-0.1-0.9-2.4-4.9-2.4c-2.1,0-3.6,0.6-4.8,2c0-0.6,0-1.2,0-1.9h-5.1v19.8
	h5.1V24.3c0,0,0-0.1,0-0.8c0.5-0.7,1.5-1.2,2.3-1.2c1.1,0,2.6,0.6,2.6,2.1v13.2h5.1V24.3c0-1.4,1.7-1.9,2.7-1.9c1,0,2.5,0.6,2.5,2.1
	v13.2h5.1V21.7C138,19.3,135.5,17.6,133.1,17.6z"/>
<g>
	<path class="st0" d="M132,11.2c-2.1-0.5-4.2-0.7-6.4-0.7c-2.2,0-4.4,0.2-6.6,0.7c-2.1,0.5-4.2,1.2-6.2,2.3v-3.2
		c1.9-1.2,3.9-2.1,6.1-2.7c2.1-0.6,4.3-1,6.5-1c1,0,2.1,0.1,3.3,0.2c1.1,0.1,2.3,0.4,3.4,0.7c1.1,0.3,2.2,0.7,3.3,1.2
		c1.1,0.5,2,1,2.9,1.6v3.3C136.1,12.5,134.1,11.7,132,11.2z"/>
</g>
<g>
	<path class="st0" d="M130.6,3.7c-1.7-0.4-3.4-0.6-5.1-0.6c-1.8,0-3.5,0.2-5.2,0.6c-1.7,0.4-3.4,1-5,1.8V2.9
		c1.5-0.9,3.1-1.6,4.8-2.1c1.7-0.5,3.4-0.8,5.1-0.8c0.8,0,1.7,0.1,2.6,0.2c0.9,0.1,1.8,0.3,2.7,0.5c0.9,0.2,1.8,0.5,2.6,0.9
		c0.8,0.4,1.6,0.8,2.3,1.3v2.6C133.9,4.7,132.3,4.1,130.6,3.7z"/>
</g>
<g>
	<path class="st0" d="M138.1,41.9v3.3c-0.9,0.6-1.8,1.1-2.9,1.6c-1.1,0.5-2.1,0.8-3.3,1.2c-1.1,0.3-2.3,0.5-3.4,0.7
		c-1.1,0.2-2.2,0.2-3.3,0.2c-2.2,0-4.3-0.3-6.5-1c-2.1-0.6-4.1-1.5-6.1-2.7v-3.2c2,1,4.1,1.8,6.2,2.2c2.1,0.5,4.3,0.7,6.6,0.7
		c2.2,0,4.3-0.2,6.4-0.7C134.1,43.6,136.1,42.9,138.1,41.9z"/>
</g>
<g>
	<path class="st0" d="M135.4,49.8v2.6c-0.7,0.5-1.5,0.9-2.3,1.3c-0.8,0.4-1.7,0.7-2.6,0.9c-0.9,0.2-1.8,0.4-2.7,0.5
		c-0.9,0.1-1.8,0.2-2.6,0.2c-1.7,0-3.4-0.3-5.1-0.8c-1.7-0.5-3.3-1.2-4.8-2.1v-2.6c1.6,0.8,3.3,1.4,5,1.8c1.7,0.4,3.4,0.6,5.2,0.6
		c1.7,0,3.4-0.2,5.1-0.6C132.3,51.2,133.9,50.6,135.4,49.8z"/>
</g>
<rect x="0.5" y="10.1" class="st1" width="34.2" height="34.2"/>
<rect x="34.7" y="10.1" class="st1" width="34.2" height="34.2"/>
<rect x="68.8" y="10.1" class="st1" width="34.2" height="34.2"/>
<path class="st0" d="M20.9,35.9V25.8c0-1.5-0.3-2.6-0.9-3.3c-0.6-0.7-1.5-1-2.8-1c-0.6,0-1.2,0.2-1.9,0.5c-0.7,0.3-1.2,0.8-1.6,1.3
	v12.6H9.7V18.4h2.9l0.8,1.6c1.1-1.3,2.8-1.9,4.9-1.9c2.1,0,3.7,0.6,4.9,1.9c1.2,1.2,1.8,3,1.8,5.2v10.7H20.9z"/>
<path class="st0" d="M50.6,21.5c1.9,0,3.2,0.4,4,1.3c0.8,0.8,1.2,2.3,1.2,4.4c0,1.9-0.4,3.4-1.2,4.2c-0.8,0.9-2.2,1.3-4.1,1.3
	c-1,0-1.9-0.3-2.6-0.9v-9.2C48.7,21.9,49.6,21.5,50.6,21.5z M51.5,36.2c2.7,0,4.8-0.8,6.3-2.3c1.5-1.5,2.3-3.8,2.3-6.6
	c0-6.1-2.8-9.2-8.4-9.2c-1.5,0-2.8,0.5-3.8,1.5v-1.2h-4.1v24.4H48v-7.3C49,36,50.2,36.2,51.5,36.2z"/>
<path class="st0" d="M90.5,22.2c-0.7-0.5-1.5-0.7-2.4-0.7c-0.9,0-1.8,0.4-2.5,1.3c-0.7,0.9-1.1,1.9-1.1,3.1v9.9h-4.1V18.4h4.1V20
	c1.1-1.3,2.6-2,4.5-2c1.4,0,2.5,0.2,3.2,0.6L90.5,22.2z"/>
</svg>
