<?xml version="1.0" encoding="UTF-8" standalone="no"?>
<svg viewBox="0 0 334 33" version="1.1" xmlns="http://www.w3.org/2000/svg" xmlns:xlink="http://www.w3.org/1999/xlink" xmlns:sketch="http://www.bohemiancoding.com/sketch/ns">
    <!-- Generator: Sketch 3.2.2 (9983) - http://www.bohemiancoding.com/sketch -->
    <title>Type something</title>
    <desc>Created with Sketch.</desc>
    <defs></defs>
    <g id="Page-1" stroke="none" stroke-width="1" fill="none" fill-rule="evenodd" sketch:type="MSPage">
        <path d="M28.122,32.592 L28.122,29.244 L9.438,29.244 L9.438,27.048 L27.15,27.048 L27.15,18.48 L5.154,18.48 L5.154,21.828 L22.902,21.828 L22.902,24.024 L5.226,24.024 L5.226,32.592 L28.122,32.592 Z M20.85,16.752 L20.85,1.344 L16.926,1.344 L16.926,7.536 L14.586,7.536 C13.902,4.44 11.418,2.028 7.566,2.028 C3.066,2.028 0.33,5.412 0.33,9.228 C0.33,13.008 3.066,16.392 7.566,16.392 C11.418,16.392 13.902,13.944 14.586,10.92 L16.926,10.92 L16.926,16.752 L20.85,16.752 Z M27.15,16.968 L27.15,0.768 L23.154,0.768 L23.154,16.968 L27.15,16.968 Z M10.914,9.228 C10.914,11.496 9.438,12.972 7.566,12.972 C5.73,12.972 4.254,11.496 4.254,9.228 C4.254,6.924 5.73,5.412 7.566,5.412 C9.438,5.412 10.914,6.924 10.914,9.228 L10.914,9.228 Z M53.358,0.768 L53.358,32.844 L57.534,32.844 L57.534,0.768 L53.358,0.768 Z M50.55,21.108 C46.446,21.864 40.074,22.044 37.014,22.044 L37.014,15.528 L47.49,15.528 L47.49,3.504 L32.694,3.504 L32.694,6.852 L43.242,6.852 L43.242,12.18 L32.838,12.18 L32.838,25.5 L36.222,25.5 C41.658,25.5 47.634,25.14 51.018,24.456 L50.55,21.108 Z M91.158,28.668 L91.158,25.32 L62.178,25.32 L62.178,28.668 L91.158,28.668 Z M90.546,15.528 C85.65,14.7 78.882,10.488 78.882,4.836 L78.882,2.712 L74.49,2.712 L74.49,4.836 C74.49,10.524 68.118,14.772 62.862,15.528 L64.842,18.948 C69.27,17.976 74.994,14.556 76.65,10.236 C78.486,14.448 84.03,17.796 88.422,18.804 L90.546,15.528 Z M130.398,0.768 L126.114,0.768 L126.114,32.844 L130.398,32.844 L130.398,16.572 L135.15,16.572 L135.15,13.08 L130.398,13.08 L130.398,0.768 Z M105.558,14.448 C105.558,21.18 108.654,25.86 113.874,25.86 C119.13,25.86 122.19,21.144 122.19,14.448 C122.19,7.68 119.13,2.964 113.874,2.964 C108.654,2.964 105.558,7.68 105.558,14.448 L105.558,14.448 Z M118.158,14.448 C118.158,19.488 116.358,22.476 113.874,22.476 C111.462,22.476 109.662,19.488 109.662,14.448 C109.662,9.372 111.462,6.348 113.874,6.348 C116.358,6.348 118.158,9.372 118.158,14.448 L118.158,14.448 Z M162.978,32.844 L162.978,0.768 L158.766,0.768 L158.766,32.844 L162.978,32.844 Z M156.354,22.404 C151.494,19.272 148.938,14.484 148.938,8.148 L148.938,3.468 L144.582,3.468 L144.582,8.364 C144.582,14.736 141.81,19.812 136.626,23.16 L139.182,26.256 C142.494,24.456 145.806,20.388 146.85,16.716 C147.93,20.064 151.278,23.952 153.906,25.572 L156.354,22.404 Z M192.678,0.768 L188.394,0.768 L188.394,32.844 L192.678,32.844 L192.678,16.572 L197.43,16.572 L197.43,13.08 L192.678,13.08 L192.678,0.768 Z M167.838,14.448 C167.838,21.18 170.934,25.86 176.154,25.86 C181.41,25.86 184.47,21.144 184.47,14.448 C184.47,7.68 181.41,2.964 176.154,2.964 C170.934,2.964 167.838,7.68 167.838,14.448 L167.838,14.448 Z M180.438,14.448 C180.438,19.488 178.638,22.476 176.154,22.476 C173.742,22.476 171.942,19.488 171.942,14.448 C171.942,9.372 173.742,6.348 176.154,6.348 C178.638,6.348 180.438,9.372 180.438,14.448 L180.438,14.448 Z M224.97,20.496 L224.97,17.112 L206.61,17.112 L206.61,13.224 L224.034,13.224 L224.034,2.82 L202.254,2.82 L202.254,6.168 L219.858,6.168 L219.858,9.876 L202.434,9.876 L202.434,20.496 L211.038,20.496 L211.038,25.5 L198.726,25.5 L198.726,28.848 L227.706,28.848 L227.706,25.5 L215.25,25.5 L215.25,20.496 L224.97,20.496 Z M267.27,27.336 C267.27,23.736 263.166,21.72 256.29,21.72 C249.45,21.72 245.346,23.736 245.346,27.336 C245.346,30.972 249.45,32.988 256.29,32.988 C263.166,32.988 267.27,30.972 267.27,27.336 L267.27,27.336 Z M258.81,15.672 C258.81,12.504 255.57,10.38 251.214,10.38 C246.75,10.38 243.474,12.504 243.474,15.672 C243.474,18.876 246.786,21 251.214,21 C255.57,21 258.81,18.876 258.81,15.672 L258.81,15.672 Z M271.194,13.404 L266.946,13.404 L266.946,10.236 L271.194,10.236 L271.194,6.852 L266.946,6.852 L266.946,0.768 L262.698,0.768 L262.698,21.432 L266.946,21.432 L266.946,16.788 L271.194,16.788 L271.194,13.404 Z M260.43,9.588 L260.43,6.312 L241.818,6.312 L241.818,9.588 L260.43,9.588 Z M256.29,24.924 C260.538,24.924 262.95,25.932 262.95,27.372 C262.95,28.776 260.538,29.784 256.29,29.784 C252.078,29.784 249.666,28.776 249.666,27.372 C249.666,25.932 252.078,24.924 256.29,24.924 L256.29,24.924 Z M246.462,4.908 L255.966,4.908 L255.966,1.632 L246.462,1.632 L246.462,4.908 Z M247.722,15.672 C247.722,14.376 249.27,13.44 251.214,13.44 C253.05,13.44 254.634,14.376 254.634,15.672 C254.634,17.004 253.05,17.904 251.214,17.904 C249.306,17.904 247.722,17.004 247.722,15.672 L247.722,15.672 Z M291.462,11.748 L291.462,8.4 L272.85,8.4 L272.85,11.748 L291.462,11.748 Z M277.35,6.168 L287.25,6.168 L287.25,2.856 L277.35,2.856 L277.35,6.168 Z M298.086,0.768 L293.838,0.768 L293.838,32.844 L298.086,32.844 L298.086,17.256 L302.55,17.256 L302.55,13.764 L298.086,13.764 L298.086,0.768 Z M274.434,19.776 C274.434,23.844 277.566,26.688 282.174,26.688 C286.782,26.688 289.914,23.7 289.914,19.776 C289.914,15.744 286.782,12.864 282.174,12.864 C277.566,12.864 274.434,15.852 274.434,19.776 L274.434,19.776 Z M278.538,19.776 C278.538,17.652 280.086,16.248 282.174,16.248 C284.262,16.248 285.81,17.652 285.81,19.776 C285.81,21.864 284.514,23.268 282.174,23.268 C280.05,23.268 278.538,21.864 278.538,19.776 L278.538,19.776 Z M329.19,0.768 L324.978,0.768 L324.978,32.844 L329.19,32.844 L329.19,16.356 L333.798,16.356 L333.798,12.864 L329.19,12.864 L329.19,0.768 Z M309.534,21.936 L309.534,7.104 L320.01,7.104 L320.01,3.72 L305.358,3.72 L305.358,25.392 L308.454,25.392 C314.718,25.392 319.578,25.104 322.674,24.312 C322.494,23.232 322.386,22.08 322.206,20.964 C318.57,21.792 314.106,21.936 309.534,21.936 L309.534,21.936 Z" id="Type-something" fill="#FDFD53" sketch:type="MSShapeGroup"></path>
    </g>
</svg>