<?xml version="1.0" encoding="utf-8"?>
<!-- Generator: Adobe Illustrator 15.1.0, SVG Export Plug-In  -->
<!DOCTYPE svg PUBLIC "-//W3C//DTD SVG 1.1//EN" "http://www.w3.org/Graphics/SVG/1.1/DTD/svg11.dtd" [
	<!ENTITY ns_flows "http://ns.adobe.com/Flows/1.0/">
]>
<svg version="1.1"
	 xmlns="http://www.w3.org/2000/svg" xmlns:xlink="http://www.w3.org/1999/xlink" xmlns:a="http://ns.adobe.com/AdobeSVGViewerExtensions/3.0/"
	 x="0px" y="0px" width="146px" height="50px" viewBox="0 0 146 50" overflow="visible" enable-background="new 0 0 146 50"
	 xml:space="preserve">
<defs>
</defs>
<line fill="none" stroke="#FFFFFF" stroke-width="2" x1="49" y1="0" x2="49" y2="49"/>
<line fill="none" stroke="#FFFFFF" stroke-width="2" x1="99" y1="0" x2="99" y2="49"/>
<path fill="#FFFFFF" d="M144,2v46H2V2H144 M146,0H0v50h146V0L146,0z"/>
<path fill="#FFFFFF" d="M31,37V23.081c0-2.113-0.156-3.651-0.969-4.626c-0.812-0.969-2.015-1.456-3.857-1.456
	c-0.852,0-1.852,0.239-2.817,0.718c-0.966,0.475-1.356,1.072-2.356,1.777V37h-5V13h3.688l1.067,2.083
	c1.577-1.825,3.904-2.854,6.983-2.854c2.95,0,5.136,0.824,6.844,2.599C36.292,16.592,37,19.003,37,22.166V37H31z"/>
<path fill="#FFFFFF" d="M73.616,17.066c2.666,0,4.538,0.6,5.694,1.798c1.152,1.194,1.711,3.257,1.711,6.19
	c0,2.742-0.594,4.754-1.754,6.025c-1.166,1.27-3.004,1.908-5.67,1.908c-1.402,0-2.599-0.424-3.599-1.273V18.688
	C71,17.611,72.229,17.066,73.616,17.066z M74.904,37.877c3.791,0,6.738-1.098,8.931-3.294c2.188-2.192,3.261-5.328,3.261-9.39
	c0-8.721-3.885-13.084-11.807-13.084c-2.122,0-4.289,0.699-5.289,2.09V13h-6v34h6V36.785C71,37.51,73.078,37.877,74.904,37.877z"/>
<path fill="#FFFFFF" d="M130.188,17.979c-1.033-0.652-2.162-0.979-3.396-0.979c-1.336,0-2.361,0.608-3.4,1.827
	c-1.039,1.218-1.391,2.703-1.391,4.462V37h-6V13h6v1.906c1-1.864,3.596-2.797,6.273-2.797c1.967,0,3.396,0.305,4.44,0.906
	L130.188,17.979z"/>
</svg>
