<?xml version="1.0" encoding="UTF-8" standalone="no"?>
<svg width="342px" height="100px" viewBox="0 0 342 100" version="1.1" xmlns="http://www.w3.org/2000/svg" xmlns:xlink="http://www.w3.org/1999/xlink" xmlns:sketch="http://www.bohemiancoding.com/sketch/ns">
    <title>Untitled 5</title>
    <description>Created with Sketch (http://www.bohemiancoding.com/sketch)</description>
    <defs></defs>
    <g id="Page-1" stroke="none" stroke-width="1" fill="none" fill-rule="evenodd" sketch:type="MSPage">
        <path d="M39.056,98 L39.056,2.096 L27.824,2.096 L27.824,62.576 L24.224,48.176 L12.128,2.096 L0.32,2.096 L0.32,98 L11.696,98 L11.696,37.808 L15.584,52.064 L29.12,98 L39.056,98 Z M83.12,41.84 L83.12,19.376 C83.12,6.56 75.632,2.096 67.424,2.096 L47.984,2.096 L47.984,98 L60.512,98 L60.512,59.12 L67.424,59.12 C75.632,59.12 83.12,54.512 83.12,41.84 Z M70.736,42.704 C70.736,46.304 69.44,48.176 66.704,48.176 L60.512,48.176 L60.512,13.76 L66.704,13.76 C69.44,13.76 70.736,15.488 70.736,19.232 L70.736,42.704 Z M127.904,98.432 L127.904,94.832 C126.464,92.384 125.744,89.36 125.744,85.04 L125.744,63.728 C125.744,58.112 123.008,53.792 118.112,51.488 C123.008,49.184 125.456,45.008 125.456,39.248 L125.456,19.088 C125.456,6.56 117.824,2.096 109.616,2.096 L90.176,2.096 L90.176,98 L102.848,98 L102.848,56.96 L108.464,56.96 C111.776,56.96 113.504,59.552 113.504,62.864 L113.504,85.76 C113.504,92.672 115.376,98.432 119.984,98.432 L127.904,98.432 Z M112.928,40.112 C112.928,44.144 111.344,46.016 108.32,46.016 L102.848,46.016 L102.848,13.76 L108.896,13.76 C111.632,13.76 112.928,15.488 112.928,19.232 L112.928,40.112 Z M185.36,41.84 L185.36,19.376 C185.36,6.56 177.872,2.096 169.664,2.096 L150.224,2.096 L150.224,98 L162.752,98 L162.752,59.12 L169.664,59.12 C177.872,59.12 185.36,54.512 185.36,41.84 Z M172.976,42.704 C172.976,46.304 171.68,48.176 168.944,48.176 L162.752,48.176 L162.752,13.76 L168.944,13.76 C171.68,13.76 172.976,15.488 172.976,19.232 L172.976,42.704 Z M222.368,98 L222.368,86.048 L204.944,86.048 L204.944,2.096 L192.416,2.096 L192.416,98 L222.368,98 Z M263.84,98 L251.024,2.096 L237.2,2.096 L224.384,98 L235.904,98 L238.064,79.424 L249.152,79.424 L250.88,98 L263.84,98 Z M247.856,67.76 L239.504,67.76 L244.112,26.576 L247.856,67.76 Z M303.008,2.096 L290.768,2.096 L282.704,43.28 L274.64,2.096 L261.968,2.096 L275.648,59.84 L275.648,98 L288.32,98 L288.32,59.84 L303.008,2.096 Z M341.456,78.416 C341.456,67.328 335.696,56.528 328.352,45.728 C321.152,34.784 317.552,29.744 317.552,19.088 C317.552,14.624 320.144,12.176 323.744,12.176 C327.488,12.176 329.504,15.056 329.504,19.808 L329.504,31.184 L340.88,31.184 L340.88,20.24 C340.88,8.144 334.112,0.656 323.744,0.656 C311.216,0.656 305.312,9.872 305.312,21.968 C305.312,33.056 312.944,46.016 319.136,54.8 C325.76,64.592 329.216,71.792 329.216,80.72 C329.216,85.472 327.056,88.352 322.592,88.352 C318.416,88.352 316.256,85.328 316.256,80.288 L316.256,69.488 L304.736,69.488 L304.736,79.856 C304.736,91.952 311.648,99.44 323.024,99.44 C332.24,99.44 341.456,93.536 341.456,78.416 Z" id="NPR-PLAYS" fill="#FFFFFF" sketch:type="MSShapeGroup"></path>
    </g>
</svg>