<?xml version="1.0" encoding="utf-8"?>
<!-- Generator: Adobe Illustrator 15.1.0, SVG Export Plug-In  -->
<!DOCTYPE svg PUBLIC "-//W3C//DTD SVG 1.1//EN" "http://www.w3.org/Graphics/SVG/1.1/DTD/svg11.dtd" [
	<!ENTITY ns_flows "http://ns.adobe.com/Flows/1.0/">
]>
<svg version="1.1"
	 xmlns="http://www.w3.org/2000/svg" xmlns:xlink="http://www.w3.org/1999/xlink" xmlns:a="http://ns.adobe.com/AdobeSVGViewerExtensions/3.0/"
	 x="0px" y="0px" width="1200px" height="399px" viewBox="0 0 1200 399" overflow="visible" enable-background="new 0 0 1200 399"
	 xml:space="preserve">
<defs>
</defs>
<polygon fill="#CFC2B6" points="0,398.5 396,398.5 396,36.581 0,36.581 42.398,217.541 "/>
<polygon fill="#CFC2B6" points="1200,398.499 804,398.499 804,36.581 1200,36.581 1157.602,217.54 "/>
<rect x="337.904" fill="#E6E1D8" width="524.191" height="353"/>
<path fill="#3A2F29" d="M397.953,201.076c1.946,2.488,1.946,4.416,8.156,8.97c7.547,4.335,16.431,6.526,16.431,2.512
	c0,4.015,11.803,2.327,15.771-2.809c3.154-3.191,3.154-3.191,4.587-5.728c4.853,8.857-9.226,48.395-41.107,61.936
	c-17.641,7.493-32.265,9.022-32.265,9.022l3.647,16.82l21.104,1.714c12.972,0,32.939-11.473,42.963-13.639
	c6.541-1.411,47.397-13.566,58.42-27.022c14.962,4.303,11.684,31.028,6.257,39.584s-30.957,14.7-30.957,14.7v12.032
	c14.751,0,16.85,0,28.265,0c14.133,0,22.915-14.722,28.254-22.45c11.194-16.202,21.648-30.389,26.063-82.949
	c17.748,12.209,29.629,21.949,38.326,26.051c0.938,12.645-2.436,16.683-14.453,22.267c-12.016,5.585-28.988,11.104-28.988,11.104
	l2.624,14.88c0,0,27.674-2.159,38.476-3.77c10.802-1.61,38.564-2.956,59.511-43.281c0,0,44.99,5.958,50.867,17.497
	c5.877,11.538,4.716,22.43-2.254,30.088c-6.971,7.657-36.358,15.881-36.358,15.881v14.684l36.77-0.027
	c0,0,16.258-0.001,24.215-16.814c7.956-16.813,47.389-66.158,9.34-113.312c72.749,27.192,174.868-89.708,77.582-160.438
	c-9.089,67.675-27.081,90.987-69.28,78.924c-43.584-42.035-83.913-83.533-162.041-66.87
	C514.046,54.245,442.773,80.24,424.467,95.173c-23.846,2.168-35.773,14.618-46.006,21.678c-6.022-2.649-10.598-3.613-17.185-2.649
	c-8.992,5.942-2.566,28.182,4.964,35.739c1.053,5.265-7.142,9.865-4.399,30.259C371.958,189.354,385.723,198.563,397.953,201.076z"
	/>
<path fill="#CFC2B6" d="M451.196,85.032c0,0,27.215-1.291,43.818,26.49c9.938,16.625,7.8,22.35,17.271,40.208
	c6.354,11.979,19.004,11.315,31.503,15.717c3.261,1.15,12.453,21.567,10.722,34.725c14.903,11.299,53.51,23.1,61.572,26.319
	c28.822,11.507,56.384,13.159,72.123,19.737c30.441-6.578,50.676-26.684,50.676-44.959c-3.459-6.396-7.264-10.783-10.376-16.814
	c7.455,1.737,15.686,4.381,21.156,4.381c-1.73-19.008-5.852-43.276-8.358-50.502c-10.93-31.498-47.737-78.522-76.793-85.102
	c24.214,52.635,38.743,101.616-1.382,108.196c-88.554,9.504-121.73-66.091-153.553-76.326
	C477.75,76.867,471.258,81.376,451.196,85.032z"/>
<path fill="#CFC2B6" d="M379.879,136.579c-15.582,11.059-14.184,40.009-7.439,45.067c-3.613-10.839,3.373-23.364,15.416-29.915
	c12.044-6.552,28.182,6.31,28.182,6.31s0.722-5.781,1.445-13.007c0.723-7.226,2.891-8.912-2.408-12.284
	c-5.299-3.372-14.287-6.745-24.162-3.372c-8.115-9.875-20.64-16.379-27.625-14.149C368.585,119.082,378.111,130.301,379.879,136.579
	z"/>
<path fill="#CFC2B6" d="M463.607,136.579c15.581,11.059,14.183,40.009,7.439,45.067c3.613-10.839-3.372-23.364-15.416-29.915
	c-12.043-6.552-28.181,6.31-28.181,6.31s-0.723-5.781-1.445-13.007c-0.723-7.226-2.89-8.912,2.409-12.284
	c5.299-3.372,14.286-6.745,24.162-3.372c8.115-9.875,20.64-16.379,27.625-14.149C474.9,119.082,465.375,130.301,463.607,136.579z"/>
<path d="M433.3,194.332c0,4.123-5.069,10.357-11.321,10.357c-6.252,0-11.321-6.234-11.321-10.357c0-4.125,5.069-4.576,11.321-4.576
	C428.231,189.756,433.3,190.207,433.3,194.332z"/>
<path stroke="#CFC2B6" stroke-width="3" stroke-miterlimit="10" d="M455.169,166.826c0,4.806-7.012,5.584-11.816,5.584
	c-4.806,0-5.584-0.778-5.584-5.584c0-4.804,3.895-8.698,8.7-8.698S455.169,162.022,455.169,166.826z"/>
<path d="M404.901,162.465c0,3.479-4.084,6.299-9.122,6.299c-5.038,0-9.122-2.82-9.122-6.299c0,2.914,4.083,3.854,9.122,3.854
	C400.817,166.319,404.901,165.942,404.901,162.465z"/>
<path fill="#CFC2C0" d="M404.901,162.514c0,3.15-1.151,8.429-9.122,8.429c-7.905,0-9.122-4.95-9.122-8.429
	C386.658,170.598,404.901,170.386,404.901,162.514z"/>
<path display="none" fill="#3A2F29" d="M130.93,154.409h-8.04l-6.36-51.838l-7.08,51.838h-8.16l-9-79.917h8.52l5.16,57.358
	l7.799-57.358h7.08l6.72,57.358l5.88-57.358h8.04L130.93,154.409z"/>
<path display="none" fill="#3A2F29" d="M169.33,154.409v-35.639h-13.559v35.639h-8.76V74.492h8.76v36.239h13.559V74.492h8.52v79.917
	H169.33z"/>
<path display="none" fill="#3A2F29" d="M207.129,154.409l-2.16-17.279h-11.04l-2.52,17.279h-8.16l12.12-79.917h9l11.64,79.917
	H207.129z M199.689,93.452l-4.68,35.639h8.879L199.689,93.452z"/>
<path display="none" fill="#3A2F29" d="M234.969,82.652v71.757h-8.52V82.652h-10.68v-8.16h29.519v8.16H234.969z"/>
<path display="none" fill="#3A2F29" d="M249.608,95.611v-2.52c2.64,0,3.96-2.16,3.96-6.6h-3.24v-12h7.2v10.8
	C257.528,91.412,255.368,95.611,249.608,95.611z"/>
<path display="none" fill="#3A2F29" d="M277.928,155.609c-9.36,0-15.239-6.48-15.239-15.72v-9.12h8.399v8.76
	c0,5.28,2.52,8.76,6.72,8.76c4.8,0,6.96-3.12,6.96-8.16c0-7.68-2.88-14.16-9.12-22.199c-5.64-7.2-12.24-17.879-12.24-27.239
	c0-9.959,4.92-17.399,15.12-17.399c8.64,0,14.279,6.48,14.279,15.839v9.479h-8.16v-8.76c0-5.52-2.04-8.759-6.36-8.759
	c-4.2,0-6.479,2.64-6.479,7.32c0,8.52,3,13.919,10.08,23.279c6.959,9,11.279,17.399,11.279,26.519
	C293.167,150.929,285.248,155.609,277.928,155.609z"/>
<path display="none" fill="#3A2F29" d="M191.17,182.652v71.757h-8.52v-71.757h-10.68v-8.16h29.519v8.16H191.17z"/>
<path display="none" fill="#3A2F29" d="M229.57,254.409v-35.639h-13.559v35.639h-8.76v-79.917h8.76v36.238h13.559v-36.238h8.52
	v79.917H229.57z"/>
<path display="none" fill="#3A2F29" d="M246.97,254.409v-79.917h8.759v79.917H246.97z"/>
<path display="none" fill="#3A2F29" d="M277.928,255.609c-9.36,0-15.239-6.48-15.239-15.72v-9.12h8.399v8.76
	c0,5.28,2.52,8.76,6.72,8.76c4.8,0,6.96-3.119,6.96-8.159c0-7.68-2.88-14.159-9.12-22.199c-5.64-7.2-12.24-17.88-12.24-27.239
	c0-9.959,4.92-17.399,15.12-17.399c8.64,0,14.279,6.48,14.279,15.839v9.479h-8.16v-8.76c0-5.52-2.04-8.759-6.36-8.759
	c-4.2,0-6.479,2.64-6.479,7.32c0,8.52,3,13.919,10.08,23.279c6.959,8.999,11.279,17.398,11.279,26.519
	C293.167,250.93,285.248,255.609,277.928,255.609z"/>
<path display="none" fill="#3A2F29" d="M118.932,282.652v71.757h-8.52v-71.757h-10.68v-8.16h29.519v8.16H118.932z"/>
<path display="none" fill="#3A2F29" d="M157.331,354.409v-35.639h-13.56v35.639h-8.759v-79.917h8.759v36.238h13.56v-36.238h8.52
	v79.917H157.331z"/>
<path display="none" fill="#3A2F29" d="M174.731,354.409v-79.917h8.76v79.917H174.731z"/>
<path display="none" fill="#3A2F29" d="M217.809,354.409l-13.56-40.438l-3.84-12.84v53.278h-8.16v-79.917h7.8l12.359,41.039
	l3.6,12.959v-53.998h8.16v79.917H217.809z"/>
<path display="none" fill="#3A2F29" d="M258.968,354.409l-2.28-4.8c-1.8,3.96-5.76,6-10.68,6c-7.68,0-13.919-5.88-13.919-16.439
	v-49.438c0-9.36,6-16.439,15.359-16.439c9.36,0,14.52,6.719,14.52,16.439v10.799h-7.92v-12.239c0-3.601-2.16-6.72-6.6-6.72
	c-4.439,0-6.72,3.24-6.72,6.84v52.078c0,4.079,2.04,7.319,6.72,7.319c4.56,0,6.84-3.24,6.84-7.319v-18.24h-6.36v-7.559h14.759
	v39.718H258.968z"/>
<path display="none" fill="#3A2F29" d="M286.328,316.611c-3.36,5.52-4.56,9.959-4.56,16.318h-6.24c0-8.039,2.04-13.68,7.8-26.278
	c2.52-5.64,3.24-13.2,3.24-16.319c0-6.96-1.92-9.12-5.879-9.12c-4.08,0-6,2.88-6,7.56v10.32h-6.84v-10.439
	c0-9.12,4.08-15.359,12.72-15.359c10.199,0,13.799,7.319,13.799,17.279C294.368,297.771,291.488,307.611,286.328,316.611z
	 M274.929,354.409v-11.64h7.439v11.64H274.929z"/>
<path display="none" fill="#3A2F29" d="M934.5,154.808l-13.56-40.438l-3.84-12.839v53.278h-8.159V74.891h7.799l12.359,41.039
	l3.601,12.959V74.891h8.159v79.917H934.5z"/>
<path display="none" fill="#3A2F29" d="M965.219,120.969h-7.079v33.839h-8.64V74.891h15.719c7.44,0,13.439,3.96,13.439,14.52v17.04
	C978.658,117.009,972.659,120.969,965.219,120.969z M969.898,88.811c0-3.84-1.439-5.76-4.559-5.76h-7.2v30.119h7.2
	c3.119,0,4.559-2.04,4.559-5.88V88.811z"/>
<path display="none" fill="#3A2F29" d="M1014.059,155.527c-5.76,0-8.04-1.92-8.04-8.64v-20.639c0-4.08-1.92-6.6-5.52-6.6h-6.6
	v35.159h-8.76V74.891h15.839c7.439,0,13.32,3.72,13.32,14.399v15.24c0,5.879-1.681,9.839-6.721,11.399
	c4.92,1.56,6.96,6.12,6.96,11.28v19.319c0,2.16,0.48,3.12,2.16,3.12v5.879H1014.059z M1005.658,88.69c0-3.72-1.56-5.64-4.799-5.64
	h-6.96v29.039h6.239c3.36,0,5.52-2.4,5.52-6.6V88.69z"/>
<path display="none" fill="#3A2F29" d="M1020.779,96.01v-2.52c2.64,0,3.959-2.16,3.959-6.6h-3.239v-12h7.199v10.8
	C1028.698,91.81,1026.539,96.01,1020.779,96.01z"/>
<path display="none" fill="#3A2F29" d="M1049.099,156.008c-9.359,0-15.239-6.48-15.239-15.72v-9.12h8.399v8.76
	c0,5.28,2.521,8.76,6.72,8.76c4.8,0,6.96-3.12,6.96-8.16c0-7.68-2.88-14.16-9.12-22.199c-5.64-7.2-12.239-17.879-12.239-27.239
	c0-9.959,4.92-17.399,15.12-17.399c8.639,0,14.279,6.48,14.279,15.839v9.479h-8.16v-8.76c0-5.52-2.04-8.759-6.359-8.759
	c-4.2,0-6.48,2.64-6.48,7.32c0,8.52,3,13.919,10.08,23.279c6.959,9,11.279,17.399,11.279,26.519
	C1064.338,151.328,1056.418,156.008,1049.099,156.008z"/>
<path display="none" fill="#3A2F29" d="M922.381,256.008c-9.36,0-15.24-6.48-15.24-15.72v-9.12h8.4v8.76
	c0,5.28,2.52,8.76,6.719,8.76c4.801,0,6.961-3.119,6.961-8.159c0-7.68-2.881-14.159-9.12-22.199
	c-5.64-7.2-12.239-17.88-12.239-27.239c0-9.959,4.92-17.399,15.119-17.399c8.64,0,14.279,6.48,14.279,15.839v9.479h-8.16v-8.76
	c0-5.52-2.039-8.759-6.359-8.759c-4.199,0-6.479,2.64-6.479,7.32c0,8.52,3,13.919,10.079,23.279
	c6.96,8.999,11.279,17.398,11.279,26.519C937.619,251.328,929.7,256.008,922.381,256.008z"/>
<path display="none" fill="#3A2F29" d="M959.099,256.008c-9.359,0-15.239-7.08-15.239-16.439v-49.438
	c0-9.24,5.88-16.44,15.239-16.44c9.36,0,14.64,6.84,14.64,16.08v13.079h-7.56v-13.92c0-3.959-2.399-6.959-6.72-6.959
	c-4.561,0-6.96,3-6.96,6.84v52.078c0,3.959,2.399,6.84,6.96,6.84c4.32,0,6.72-2.881,6.72-6.961v-14.039h7.56v13.199
	C973.738,249.168,968.459,256.008,959.099,256.008z"/>
<path display="none" fill="#3A2F29" d="M981.179,254.808v-79.917h8.76v79.917H981.179z"/>
<path display="none" fill="#3A2F29" d="M998.817,254.808v-79.917h25.438v8.04h-16.799v26.639h12.119v7.8h-12.119v29.398h16.799v8.04
	H998.817z"/>
<path display="none" fill="#3A2F29" d="M1056.655,254.808l-13.56-40.438l-3.84-12.84v53.278h-8.16v-79.917h7.801l12.359,41.039
	l3.6,12.959v-53.998h8.159v79.917H1056.655z"/>
<path display="none" fill="#3A2F29" d="M1086.175,256.008c-9.36,0-15.239-7.08-15.239-16.439v-49.438
	c0-9.24,5.879-16.44,15.239-16.44c9.359,0,14.64,6.84,14.64,16.08v13.079h-7.561v-13.92c0-3.959-2.399-6.959-6.719-6.959
	c-4.561,0-6.961,3-6.961,6.84v52.078c0,3.959,2.4,6.84,6.961,6.84c4.319,0,6.719-2.881,6.719-6.961v-14.039h7.561v13.199
	C1100.814,249.168,1095.534,256.008,1086.175,256.008z"/>
<path display="none" fill="#3A2F29" d="M1108.254,254.808v-79.917h25.439v8.04h-16.799v26.639h12.119v7.8h-12.119v29.398h16.799
	v8.04H1108.254z"/>
<path display="none" fill="#3A2F29" d="M925.26,283.051v71.757h-8.52v-71.757h-10.68v-8.16h29.52v8.16H925.26z"/>
<path display="none" fill="#3A2F29" d="M956.1,356.008c-8.76,0-15.119-6.24-15.119-16.08v-65.037h8.64v65.518
	c0,4.92,2.16,7.439,6.601,7.439c4.439,0,6.6-2.52,6.6-7.439v-65.518h8.399v65.037C971.22,349.768,964.74,356.008,956.1,356.008z"/>
<path display="none" fill="#3A2F29" d="M1014.178,354.808V294.33l-1.92,13.92l-7.319,46.558h-8.04l-7.559-46.558l-1.92-13.92v60.478
	h-7.68v-79.917H992.1l7.199,49.438l1.92,13.919l1.92-13.919l7.08-49.438h11.999v79.917H1014.178z"/>
<path display="none" fill="#3A2F29" d="M1047.297,354.808h-16.078v-79.917h15.839c7.439,0,13.199,3.721,13.199,14.399v13.2
	c0,5.879-1.92,9.959-6.72,11.52c5.16,1.56,6.96,5.76,6.96,11.639v14.76C1060.497,351.088,1054.737,354.808,1047.297,354.808z
	 M1051.737,288.69c0-3.72-1.56-5.64-4.68-5.64h-7.08v27.479h6.12c3.6,0,5.64-2.4,5.64-6.479V288.69z M1051.978,324.329
	c0-4.08-2.16-6.479-5.64-6.479h-6.36v28.799h7.2c3.119,0,4.8-1.92,4.8-5.641V324.329z"/>
<path display="none" fill="#3A2F29" d="M1068.297,354.808v-79.917h8.641v71.637h16.199v8.28H1068.297z"/>
<path display="none" fill="#3A2F29" d="M1128.176,355.527c-5.76,0-8.04-1.92-8.04-8.64v-20.639c0-4.08-1.92-6.601-5.52-6.601h-6.6
	v35.159h-8.76v-79.917h15.839c7.439,0,13.32,3.721,13.32,14.399v15.239c0,5.88-1.681,9.84-6.721,11.4
	c4.92,1.56,6.96,6.119,6.96,11.279v19.318c0,2.16,0.48,3.121,2.16,3.121v5.879H1128.176z M1119.775,288.69
	c0-3.72-1.56-5.64-4.799-5.64h-6.96v29.039h6.239c3.36,0,5.52-2.4,5.52-6.6V288.69z"/>
<path display="none" fill="#3A2F29" d="M1136.814,354.808v-11.999h7.199v11.999H1136.814z"/>
<polygon fill="#7A6256" points="337.904,353 396,353 396,398.5 "/>
<polygon fill="#7A6256" points="804,353 862.096,353 804,398.499 "/>
<rect x="50" y="74.491" display="none" fill="none" width="265.688" height="286.099"/>
<text transform="matrix(1 0 0 1 157.29 154.4092)" display="none"><tspan x="0" y="0" display="inline" fill="#3A2F29" font-family="'Knockout-27JuniorBantamwt'" font-size="120">WHAT</tspan><tspan x="-107.29" y="100" display="inline" fill="#3A2F29" font-family="'Knockout-27JuniorBantamwt'" font-size="120" letter-spacing="59">	</tspan><tspan x="-33.715" y="100" display="inline" fill="#3A2F29" font-family="'Knockout-27JuniorBantamwt'" font-size="120">IS THIS </tspan><tspan x="-38.998" y="200" display="inline" fill="#3A2F29" font-family="'Knockout-27JuniorBantamwt'" font-size="120">THING?</tspan></text>
<rect x="884.621" y="74.89" display="none" fill="none" width="270.943" height="285.302"/>
<text transform="matrix(1 0 0 1 884.6211 154.8076)" display="none"><tspan x="0" y="0" display="inline" fill="#3A2F29" font-family="'Knockout-27JuniorBantamwt'" font-size="120">NPR’S</tspan><tspan x="0" y="100" display="inline" fill="#3A2F29" font-family="'Knockout-27JuniorBantamwt'" font-size="120">SCIENCE </tspan><tspan x="0" y="200" display="inline" fill="#3A2F29" font-family="'Knockout-27JuniorBantamwt'" font-size="120">TUMBLR.</tspan></text>
<path fill="#3A2F29" d="M180.008,154.409h-8.04l-6.36-51.838l-7.08,51.838h-8.16l-9-79.917h8.52l5.16,57.358l7.799-57.358h7.08
	l6.72,57.358l5.88-57.358h8.04L180.008,154.409z"/>
<path fill="#3A2F29" d="M218.408,154.409v-35.639h-13.559v35.639h-8.76V74.492h8.76v36.239h13.559V74.492h8.52v79.917H218.408z"/>
<path fill="#3A2F29" d="M256.207,154.409l-2.16-17.279h-11.04l-2.52,17.279h-8.16l12.12-79.917h9l11.64,79.917H256.207z
	 M248.768,93.452l-4.68,35.639h8.879L248.768,93.452z"/>
<path fill="#3A2F29" d="M284.047,82.652v71.757h-8.52V82.652h-10.68v-8.16h29.519v8.16H284.047z"/>
<path fill="#3A2F29" d="M108.015,254.409v-79.917h8.759v79.917H108.015z"/>
<path fill="#3A2F29" d="M138.973,255.609c-9.36,0-15.239-6.48-15.239-15.72v-9.12h8.399v8.76c0,5.28,2.52,8.76,6.72,8.76
	c4.8,0,6.96-3.119,6.96-8.159c0-7.68-2.88-14.159-9.12-22.199c-5.64-7.2-12.24-17.88-12.24-27.239c0-9.959,4.92-17.399,15.12-17.399
	c8.64,0,14.279,6.48,14.279,15.839v9.479h-8.16v-8.76c0-5.52-2.04-8.759-6.36-8.759c-4.2,0-6.479,2.64-6.479,7.32
	c0,8.52,3,13.919,10.08,23.279c6.959,8.999,11.279,17.398,11.279,26.519C154.212,250.93,146.293,255.609,138.973,255.609z"/>
<path fill="#3A2F29" d="M191.17,182.652v71.757h-8.52v-71.757h-10.68v-8.16h29.519v8.16H191.17z"/>
<path fill="#3A2F29" d="M229.57,254.409v-35.639h-13.559v35.639h-8.76v-79.917h8.76v36.238h13.559v-36.238h8.52v79.917H229.57z"/>
<path fill="#3A2F29" d="M246.97,254.409v-79.917h8.759v79.917H246.97z"/>
<path fill="#3A2F29" d="M277.928,255.609c-9.36,0-15.239-6.48-15.239-15.72v-9.12h8.399v8.76c0,5.28,2.52,8.76,6.72,8.76
	c4.8,0,6.96-3.119,6.96-8.159c0-7.68-2.88-14.159-9.12-22.199c-5.64-7.2-12.24-17.88-12.24-27.239c0-9.959,4.92-17.399,15.12-17.399
	c8.64,0,14.279,6.48,14.279,15.839v9.479h-8.16v-8.76c0-5.52-2.04-8.759-6.36-8.759c-4.2,0-6.479,2.64-6.479,7.32
	c0,8.52,3,13.919,10.08,23.279c6.959,8.999,11.279,17.398,11.279,26.519C293.167,250.93,285.248,255.609,277.928,255.609z"/>
<path fill="#3A2F29" d="M118.932,282.652v71.757h-8.52v-71.757h-10.68v-8.16h29.519v8.16H118.932z"/>
<path fill="#3A2F29" d="M157.331,354.409v-35.639h-13.56v35.639h-8.759v-79.917h8.759v36.238h13.56v-36.238h8.52v79.917H157.331z"/>
<path fill="#3A2F29" d="M174.731,354.409v-79.917h8.76v79.917H174.731z"/>
<path fill="#3A2F29" d="M217.809,354.409l-13.56-40.438l-3.84-12.84v53.278h-8.16v-79.917h7.8l12.359,41.039l3.6,12.959v-53.998
	h8.16v79.917H217.809z"/>
<path fill="#3A2F29" d="M258.968,354.409l-2.28-4.8c-1.8,3.96-5.76,6-10.68,6c-7.68,0-13.919-5.88-13.919-16.439v-49.438
	c0-9.36,6-16.439,15.359-16.439c9.36,0,14.52,6.719,14.52,16.439v10.799h-7.92v-12.239c0-3.601-2.16-6.72-6.6-6.72
	c-4.439,0-6.72,3.24-6.72,6.84v52.078c0,4.079,2.04,7.319,6.72,7.319c4.56,0,6.84-3.24,6.84-7.319v-18.24h-6.36v-7.559h14.759
	v39.718H258.968z"/>
<path fill="#3A2F29" d="M286.328,316.611c-3.36,5.52-4.56,9.959-4.56,16.318h-6.24c0-8.039,2.04-13.68,7.8-26.278
	c2.52-5.64,3.24-13.2,3.24-16.319c0-6.96-1.92-9.12-5.879-9.12c-4.08,0-6,2.88-6,7.56v10.32h-6.84v-10.439
	c0-9.12,4.08-15.359,12.72-15.359c10.199,0,13.799,7.319,13.799,17.279C294.368,297.771,291.488,307.611,286.328,316.611z
	 M274.929,354.409v-11.64h7.439v11.64H274.929z"/>
<path fill="#3A2F29" d="M934.5,154.808l-13.56-40.438l-3.84-12.839v53.278h-8.159V74.891h7.799l12.359,41.039l3.601,12.959V74.891
	h8.159v79.917H934.5z"/>
<path fill="#3A2F29" d="M965.219,120.969h-7.079v33.839h-8.64V74.891h15.719c7.44,0,13.439,3.96,13.439,14.52v17.04
	C978.658,117.009,972.659,120.969,965.219,120.969z M969.898,88.811c0-3.84-1.439-5.76-4.559-5.76h-7.2v30.119h7.2
	c3.119,0,4.559-2.04,4.559-5.88V88.811z"/>
<path fill="#3A2F29" d="M1014.059,155.527c-5.76,0-8.04-1.92-8.04-8.64v-20.639c0-4.08-1.92-6.6-5.52-6.6h-6.6v35.159h-8.76V74.891
	h15.839c7.439,0,13.32,3.72,13.32,14.399v15.24c0,5.879-1.681,9.839-6.721,11.399c4.92,1.56,6.96,6.12,6.96,11.28v19.319
	c0,2.16,0.48,3.12,2.16,3.12v5.879H1014.059z M1005.658,88.69c0-3.72-1.56-5.64-4.799-5.64h-6.96v29.039h6.239
	c3.36,0,5.52-2.4,5.52-6.6V88.69z"/>
<path fill="#3A2F29" d="M1020.779,96.01v-2.52c2.64,0,3.959-2.16,3.959-6.6h-3.239v-12h7.199v10.8
	C1028.698,91.81,1026.539,96.01,1020.779,96.01z"/>
<path fill="#3A2F29" d="M1049.099,156.008c-9.359,0-15.239-6.48-15.239-15.72v-9.12h8.399v8.76c0,5.28,2.521,8.76,6.72,8.76
	c4.8,0,6.96-3.12,6.96-8.16c0-7.68-2.88-14.16-9.12-22.199c-5.64-7.2-12.239-17.879-12.239-27.239c0-9.959,4.92-17.399,15.12-17.399
	c8.639,0,14.279,6.48,14.279,15.839v9.479h-8.16v-8.76c0-5.52-2.04-8.759-6.359-8.759c-4.2,0-6.48,2.64-6.48,7.32
	c0,8.52,3,13.919,10.08,23.279c6.959,9,11.279,17.399,11.279,26.519C1064.338,151.328,1056.418,156.008,1049.099,156.008z"/>
<path fill="#3A2F29" d="M922.381,256.008c-9.36,0-15.24-6.48-15.24-15.72v-9.12h8.4v8.76c0,5.28,2.52,8.76,6.719,8.76
	c4.801,0,6.961-3.119,6.961-8.159c0-7.68-2.881-14.159-9.12-22.199c-5.64-7.2-12.239-17.88-12.239-27.239
	c0-9.959,4.92-17.399,15.119-17.399c8.64,0,14.279,6.48,14.279,15.839v9.479h-8.16v-8.76c0-5.52-2.039-8.759-6.359-8.759
	c-4.199,0-6.479,2.64-6.479,7.32c0,8.52,3,13.919,10.079,23.279c6.96,8.999,11.279,17.398,11.279,26.519
	C937.619,251.328,929.7,256.008,922.381,256.008z"/>
<path fill="#3A2F29" d="M959.099,256.008c-9.359,0-15.239-7.08-15.239-16.439v-49.438c0-9.24,5.88-16.44,15.239-16.44
	c9.36,0,14.64,6.84,14.64,16.08v13.079h-7.56v-13.92c0-3.959-2.399-6.959-6.72-6.959c-4.561,0-6.96,3-6.96,6.84v52.078
	c0,3.959,2.399,6.84,6.96,6.84c4.32,0,6.72-2.881,6.72-6.961v-14.039h7.56v13.199C973.738,249.168,968.459,256.008,959.099,256.008z
	"/>
<path fill="#3A2F29" d="M981.179,254.808v-79.917h8.76v79.917H981.179z"/>
<path fill="#3A2F29" d="M998.817,254.808v-79.917h25.438v8.04h-16.799v26.639h12.119v7.8h-12.119v29.398h16.799v8.04H998.817z"/>
<path fill="#3A2F29" d="M1056.655,254.808l-13.56-40.438l-3.84-12.84v53.278h-8.16v-79.917h7.801l12.359,41.039l3.6,12.959v-53.998
	h8.159v79.917H1056.655z"/>
<path fill="#3A2F29" d="M1086.175,256.008c-9.36,0-15.239-7.08-15.239-16.439v-49.438c0-9.24,5.879-16.44,15.239-16.44
	c9.359,0,14.64,6.84,14.64,16.08v13.079h-7.561v-13.92c0-3.959-2.399-6.959-6.719-6.959c-4.561,0-6.961,3-6.961,6.84v52.078
	c0,3.959,2.4,6.84,6.961,6.84c4.319,0,6.719-2.881,6.719-6.961v-14.039h7.561v13.199
	C1100.814,249.168,1095.534,256.008,1086.175,256.008z"/>
<path fill="#3A2F29" d="M1108.254,254.808v-79.917h25.439v8.04h-16.799v26.639h12.119v7.8h-12.119v29.398h16.799v8.04H1108.254z"/>
<path fill="#3A2F29" d="M925.26,283.051v71.757h-8.52v-71.757h-10.68v-8.16h29.52v8.16H925.26z"/>
<path fill="#3A2F29" d="M956.1,356.008c-8.76,0-15.119-6.24-15.119-16.08v-65.037h8.64v65.518c0,4.92,2.16,7.439,6.601,7.439
	c4.439,0,6.6-2.52,6.6-7.439v-65.518h8.399v65.037C971.22,349.768,964.74,356.008,956.1,356.008z"/>
<path fill="#3A2F29" d="M1014.178,354.808V294.33l-1.92,13.92l-7.319,46.558h-8.04l-7.559-46.558l-1.92-13.92v60.478h-7.68v-79.917
	H992.1l7.199,49.438l1.92,13.919l1.92-13.919l7.08-49.438h11.999v79.917H1014.178z"/>
<path fill="#3A2F29" d="M1047.297,354.808h-16.078v-79.917h15.839c7.439,0,13.199,3.721,13.199,14.399v13.2
	c0,5.879-1.92,9.959-6.72,11.52c5.16,1.56,6.96,5.76,6.96,11.639v14.76C1060.497,351.088,1054.737,354.808,1047.297,354.808z
	 M1051.737,288.69c0-3.72-1.56-5.64-4.68-5.64h-7.08v27.479h6.12c3.6,0,5.64-2.4,5.64-6.479V288.69z M1051.978,324.329
	c0-4.08-2.16-6.479-5.64-6.479h-6.36v28.799h7.2c3.119,0,4.8-1.92,4.8-5.641V324.329z"/>
<path fill="#3A2F29" d="M1068.297,354.808v-79.917h8.641v71.637h16.199v8.28H1068.297z"/>
<path fill="#3A2F29" d="M1128.176,355.527c-5.76,0-8.04-1.92-8.04-8.64v-20.639c0-4.08-1.92-6.601-5.52-6.601h-6.6v35.159h-8.76
	v-79.917h15.839c7.439,0,13.32,3.721,13.32,14.399v15.239c0,5.88-1.681,9.84-6.721,11.4c4.92,1.56,6.96,6.119,6.96,11.279v19.318
	c0,2.16,0.48,3.121,2.16,3.121v5.879H1128.176z M1119.775,288.69c0-3.72-1.56-5.64-4.799-5.64h-6.96v29.039h6.239
	c3.36,0,5.52-2.4,5.52-6.6V288.69z"/>
<path fill="#3A2F29" d="M1136.814,354.808v-11.999h7.199v11.999H1136.814z"/>
</svg>
