<?xml version="1.0" encoding="utf-8"?>
<!-- Generator: Adobe Illustrator 15.1.0, SVG Export Plug-In  -->
<!DOCTYPE svg PUBLIC "-//W3C//DTD SVG 1.1//EN" "http://www.w3.org/Graphics/SVG/1.1/DTD/svg11.dtd" [
	<!ENTITY ns_flows "http://ns.adobe.com/Flows/1.0/">
]>
<svg version="1.1"
	 xmlns="http://www.w3.org/2000/svg" xmlns:xlink="http://www.w3.org/1999/xlink" xmlns:a="http://ns.adobe.com/AdobeSVGViewerExtensions/3.0/"
	 x="0px" y="0px" width="624px" height="368px" viewBox="-15.414 -41.257 624 368"
	 overflow="visible" enable-background="new -15.414 -41.257 624 368" xml:space="preserve">
<defs>
</defs>
<path d="M199.538,273.862c-5.952,8.881-33.952,15.257-33.952,15.257v12.489c16.178,0,18.48,0,31,0
	c15.5,0,25.132-15.279,30.988-23.301c12.276-16.817,23.743-31.542,28.585-86.095c19.465,12.672,32.495,22.781,42.034,27.04
	c1.028,13.123-2.673,17.314-15.852,23.109c-13.179,5.796-31.793,11.524-31.793,11.524l2.877,15.444c0,0,30.353-2.24,42.2-3.912
	c11.848-1.672,42.294-3.068,65.271-44.922c0,0,49.342,6.184,55.788,18.159c6.446,11.975,5.172,23.28-2.472,31.229
	c-7.645,7.949-39.877,16.484-39.877,16.484v15.24l40.328-0.027c0,0,17.83-0.002,26.557-17.453
	c8.727-17.452,51.975-68.667,10.243-117.608C531.253,194.743,643.253,73.41,536.554,0c-9.968,70.239-29.701,94.436-75.984,81.916
	c-47.802-43.629-92.032-86.7-177.72-69.406C212.84,26.64,130.72,55.833,125.337,56.333c-2.263,0.21-18.352-5.337-18.352-5.337
	S80.797,66.45,74.432,69.25c-10.982,4.83-33.188,18.75-35.285,30.328C37.701,107.563,0,132.374,0,132.374s4.482,8.332,6.868,7.349
	c2.385-0.984,3.752-4.729,3.01-6.566c0.935,3.914-0.432,7.66-2.628,8.626c2.033,3.431,17.914,18.531,32.391,18.521
	c14.477-0.011,60.871-5.08,76.38-4.232c15.51,0.846,18.513,8.569,21.648,13.612c0,0,8.29,15.423,5.456,23.878
	c0,0-18.435,38.764-53.401,52.818c-19.348,7.776-35.387,9.363-35.387,9.363l4,17.458l23.146,1.778
	c14.227,0,36.126-11.908,47.121-14.155c7.174-1.466,51.983-14.082,64.074-28.047C209.086,237.243,205.49,264.981,199.538,273.862z"
	/>
<path fill="#FFFFFF" d="M61.175,78.312c7.208-1.328,13.581,0.486,16.615,6.556c14.399-9.022,28.99-17.694,33.369-13.575
	c4.606,4.334-7.46,40.721-4.932,43.25c4.932,4.932,3.035,17.831,2.275,25.418c-0.759,7.587-6.449,12.899-14.416,12.14
	c-7.967-0.759-11.381-5.69-16.313-10.243s-3.415-22.004-6.07-29.592s-9.105-8.346-15.555-7.967
	c-6.45,0.379-14.416,1.043-15.934-3.699C40.783,93.962,53.967,82.485,61.175,78.312z M88.016,95.194
	c4.932,4.932,8.726,8.726,8.726,8.726s6.45-14.796,4.173-18.21C98.639,82.296,88.016,95.194,88.016,95.194z"/>
<path fill="#FFFFFF" d="M134.301,58.774c0,0,39.456-1.518,57.666,27.315c10.899,17.256,8.555,23.197,18.941,41.732
	c6.968,12.434,20.843,11.744,34.551,16.313c3.577,1.192,13.658,22.384,11.76,36.041c16.345,11.726,58.688,23.975,67.53,27.315
	c31.61,11.943,61.839,13.658,79.101,20.487c33.387-6.829,55.58-27.696,55.58-46.664c-3.794-6.639-7.968-11.191-11.381-17.451
	c8.177,1.802,17.203,4.546,23.203,4.546c-1.897-19.729-6.417-44.917-9.167-52.417c-11.987-32.692-52.354-81.5-84.223-88.328
	c26.557,54.631,42.492,105.468-1.517,112.297c-97.122,9.864-138.096-65.254-172.999-75.876S156.305,54.98,134.301,58.774z"/>
<path fill="#FFFFFF" d="M42.301,108.473c9.674-2.276,20.818-2.608,21.885,1.233c1.017,3.66-1.28,5.904-5.003,6.734
	c-6.03,1.345-19.111,0.931-39.456,12.14c10.528-7.777,26.177-13.278,29.781-13.089c0,0-1.027-0.647-1.257-2.798
	c-0.279-2.613,1.778-3.64,1.778-3.64C47.754,108.864,42.301,108.473,42.301,108.473z"/>
<circle cx="56.097" cy="112.018" r="5.742"/>
</svg>
