<?xml version="1.0" encoding="UTF-8" standalone="no"?>
<svg width="153px" height="158px" viewBox="0 0 153 158" version="1.1" xmlns="http://www.w3.org/2000/svg" xmlns:xlink="http://www.w3.org/1999/xlink" xmlns:sketch="http://www.bohemiancoding.com/sketch/ns">
    <title>Untitled 5</title>
    <description>Created with Sketch (http://www.bohemiancoding.com/sketch)</description>
    <defs></defs>
    <g id="Page-1" stroke="none" stroke-width="1" fill="none" fill-rule="evenodd" sketch:type="MSPage">
        <g id="header-lg" sketch:type="MSLayerGroup" transform="translate(0.000000, 1.000000)">
            <g id="Page-1" sketch:type="MSShapeGroup">
                <g id="large">
                    <path d="M61.8714999,97.347942 C64.5354999,97.347942 66.6234999,96.771942 68.5674999,95.763942 L68.5674999,91.011942 C66.6234999,91.947942 65.0394999,92.307942 63.1674999,92.307942 C59.4234999,92.307942 56.9034999,90.651942 56.9034999,86.1159416 L56.9034999,64.3719416 L68.7114999,64.3719416 L68.7114999,59.4759416 L56.9034999,59.4759416 L56.9034999,48.2439416 L51.3594999,48.2439416 L51.3594999,59.4759416 L46.1754999,59.4759416 L46.1754999,64.3719416 L51.3594999,64.3719416 L51.3594999,86.8359416 C51.3594999,94.395942 55.8954999,97.347942 61.8714999,97.347942 L61.8714999,97.347942 Z M74.4035,96.699942 L79.9475,96.699942 L79.9475,75.3879416 C79.9475,68.4039416 84.6995,63.7239416 91.1075,63.7239416 C97.6595,63.7239416 101.4035,68.0439416 101.4035,74.9559416 L101.4035,96.699942 L106.9475,96.699942 L106.9475,73.5879416 C106.9475,64.7319416 101.6915,58.6839416 92.6915,58.6839416 C86.2835,58.6839416 82.3955,61.9239416 79.9475,65.9559416 L79.9475,44.1399416 L74.4035,44.1399416 L74.4035,96.699942 L74.4035,96.699942 Z M134.0275,97.563942 C141.0835,97.563942 145.6195,94.755942 149.3635,90.579942 L145.9075,87.4839416 C142.8835,90.651942 139.2835,92.739942 134.1715,92.739942 C127.5475,92.739942 121.8595,88.2039416 121.0675,80.1399416 L150.5875,80.1399416 C150.6595,79.4919416 150.6595,79.0599416 150.6595,78.3399416 C150.6595,67.4679416 144.3235,58.6839416 133.3075,58.6839416 C123.0115,58.6839416 115.4515,67.3239416 115.4515,78.0519416 L115.4515,78.1959416 C115.4515,89.7159416 123.8035,97.563942 134.0275,97.563942 L134.0275,97.563942 Z M121.0675,76.0359416 C121.7875,68.7639416 126.6835,63.3639416 133.1635,63.3639416 C140.5795,63.3639416 144.4675,69.2679416 145.0435,76.0359416 L121.0675,76.0359416 L121.0675,76.0359416 Z" id="on-" fill-opacity="0.8" fill="#FFFFFF"></path>
                    <path d="M0.152,155.699942 L8.864,155.699942 L8.864,141.227942 C8.864,131.147942 14.192,126.179942 21.824,126.179942 L22.328,126.179942 L22.328,116.963942 C15.632,116.675942 11.24,120.563942 8.864,126.251942 L8.864,117.683942 L0.152,117.683942 L0.152,155.699942 L0.152,155.699942 Z" id="Path" fill="#F6F6F6"></path>
                    <path d="M45.664,156.563942 C57.4,156.563942 66.04,147.563942 66.04,136.763942 L66.04,136.619942 C66.04,125.747942 57.472,116.891942 45.808,116.891942 C34.144,116.891942 25.504,125.891942 25.504,136.763942 L25.504,136.907942 C25.504,147.707942 34.072,156.563942 45.664,156.563942 L45.664,156.563942 Z M45.808,148.931942 C39.04,148.931942 34.216,143.387942 34.216,136.763942 L34.216,136.619942 C34.216,129.995942 38.68,124.523942 45.664,124.523942 C52.504,124.523942 57.328,130.067942 57.328,136.763942 L57.328,136.907942 C57.328,143.459942 52.864,148.931942 45.808,148.931942 L45.808,148.931942 Z" id="Path" fill="#F6F6F6"></path>
                    <path d="M84.84,156.491942 C90.672,156.491942 94.632,154.043942 97.224,150.947942 L97.224,155.699942 L105.72,155.699942 L105.72,133.163942 C105.72,128.195942 104.424,124.163942 101.616,121.427942 C98.952,118.691942 94.704,117.179942 89.016,117.179942 C82.968,117.179942 78.864,118.403942 74.688,120.275942 L76.992,127.115942 C80.448,125.675942 83.616,124.739942 87.864,124.739942 C93.984,124.739942 97.296,127.619942 97.296,133.019942 L97.296,133.955942 C94.344,133.019942 91.32,132.371942 87.072,132.371942 C77.784,132.371942 71.376,136.403942 71.376,144.611942 L71.376,144.755942 C71.376,152.387942 77.712,156.491942 84.84,156.491942 L84.84,156.491942 Z M87.288,150.155942 C83.112,150.155942 79.872,148.067942 79.872,144.395942 L79.872,144.251942 C79.872,140.291942 83.184,137.915942 88.8,137.915942 C92.256,137.915942 95.208,138.563942 97.44,139.427942 L97.44,142.019942 C97.44,146.843942 93.048,150.155942 87.288,150.155942 L87.288,150.155942 Z" id="Path" fill="#F6F6F6"></path>
                    <path d="M130.856,156.491942 C137.048,156.491942 141.008,153.323942 143.816,149.363942 L143.816,155.699942 L152.528,155.699942 L152.528,103.139942 L143.816,103.139942 L143.816,123.587942 C141.08,119.987942 137.12,116.891942 130.856,116.891942 C121.784,116.891942 113.216,124.019942 113.216,136.619942 L113.216,136.763942 C113.216,149.363942 121.928,156.491942 130.856,156.491942 L130.856,156.491942 Z M132.944,148.931942 C127.04,148.931942 122,144.107942 122,136.763942 L122,136.619942 C122,129.059942 126.968,124.451942 132.944,124.451942 C138.776,124.451942 143.96,129.275942 143.96,136.619942 L143.96,136.763942 C143.96,144.035942 138.776,148.931942 132.944,148.931942 L132.944,148.931942 Z" id="Path" fill="#F6F6F6"></path>
                    <path d="M87.5075,38.5639416 C98.7395,38.5639416 107.0195,29.6359416 107.0195,19.1239416 L107.0195,18.9799416 C107.0195,8.46794164 98.8115,-0.316058365 87.6515,-0.316058365 C76.4195,-0.316058365 68.2115,8.61194164 68.2115,19.1239416 L68.2115,19.2679416 C68.2115,29.7799416 76.3475,38.5639416 87.5075,38.5639416 L87.5075,38.5639416 Z M73.8995,19.1239416 L73.8995,18.9799416 C73.8995,11.1319416 79.4435,4.57994164 87.5075,4.57994164 C95.3555,4.57994164 101.3315,11.1319416 101.3315,19.1239416 L101.3315,19.2679416 C101.3315,27.1159416 95.7155,33.5959416 87.6515,33.5959416 C79.8035,33.5959416 73.8995,27.1159416 73.8995,19.1239416 L73.8995,19.1239416 Z" id="Path" fill-opacity="0.8" fill="#FFFFFF"></path>
                    <path d="M116.0275,37.6999416 L121.5715,37.6999416 L121.5715,16.3879416 C121.5715,9.40394164 126.3235,4.72394164 132.7315,4.72394164 C139.2835,4.72394164 143.0275,9.04394164 143.0275,15.9559416 L143.0275,37.6999416 L148.5715,37.6999416 L148.5715,14.5879416 C148.5715,5.73194164 143.3155,-0.316058365 134.3155,-0.316058365 C127.9075,-0.316058365 124.0195,2.92394164 121.5715,6.95594164 L121.5715,0.475941635 L116.0275,0.475941635 L116.0275,37.6999416 L116.0275,37.6999416 Z" id="Path" fill-opacity="0.8" fill="#FFFFFF"></path>
                </g>
            </g>
        </g>
    </g>
</svg>