<?xml version="1.0" encoding="UTF-8" standalone="no"?>
<svg width="385px" height="54px" viewBox="0 0 385 54" version="1.1" xmlns="http://www.w3.org/2000/svg" xmlns:xlink="http://www.w3.org/1999/xlink" xmlns:sketch="http://www.bohemiancoding.com/sketch/ns">
    <title>Slice 1</title>
    <description>Created with Sketch (http://www.bohemiancoding.com/sketch)</description>
    <defs></defs>
    <g id="Page-1" stroke="none" stroke-width="1" fill="none" fill-rule="evenodd" sketch:type="MSPage">
        <g id="Group" sketch:type="MSLayerGroup" transform="translate(1.000000, 0.000000)" fill="#FFFFFF">
            <path d="M19.184,53.5639416 C30.416,53.5639416 38.696,44.6359416 38.696,34.1239416 L38.696,33.9799416 C38.696,23.4679416 30.488,14.6839416 19.328,14.6839416 C8.096,14.6839416 -0.112,23.6119416 -0.112,34.1239416 L-0.112,34.2679416 C-0.112,44.7799416 8.024,53.5639416 19.184,53.5639416 Z M19.328,48.5959416 C11.48,48.5959416 5.576,42.1159416 5.576,34.1239416 L5.576,33.9799416 C5.576,26.1319416 11.12,19.5799416 19.184,19.5799416 C27.032,19.5799416 33.008,26.1319416 33.008,34.1239416 L33.008,34.2679416 C33.008,42.1159416 27.392,48.5959416 19.328,48.5959416 Z M47.704,52.6999416 L53.248,52.6999416 L53.248,31.3879416 C53.248,24.4039416 58,19.7239416 64.408,19.7239416 C70.96,19.7239416 74.704,24.0439416 74.704,30.9559416 L74.704,52.6999416 L80.248,52.6999416 L80.248,29.5879416 C80.248,20.7319416 74.992,14.6839416 65.992,14.6839416 C59.584,14.6839416 55.696,17.9239416 53.248,21.9559416 L53.248,15.4759416 L47.704,15.4759416 L47.704,52.6999416 Z M118.9245,53.3479416 C121.5885,53.3479416 123.6765,52.7719416 125.6205,51.7639416 L125.6205,47.0119416 C123.6765,47.9479416 122.0925,48.3079416 120.2205,48.3079416 C116.4765,48.3079416 113.9565,46.6519416 113.9565,42.1159416 L113.9565,20.3719416 L125.7645,20.3719416 L125.7645,15.4759416 L113.9565,15.4759416 L113.9565,4.24394164 L108.4125,4.24394164 L108.4125,15.4759416 L103.2285,15.4759416 L103.2285,20.3719416 L108.4125,20.3719416 L108.4125,42.8359416 C108.4125,50.3959416 112.9485,53.3479416 118.9245,53.3479416 Z M131.4565,52.6999416 L137.0005,52.6999416 L137.0005,31.3879416 C137.0005,24.4039416 141.7525,19.7239416 148.1605,19.7239416 C154.7125,19.7239416 158.4565,24.0439416 158.4565,30.9559416 L158.4565,52.6999416 L164.0005,52.6999416 L164.0005,29.5879416 C164.0005,20.7319416 158.7445,14.6839416 149.7445,14.6839416 C143.3365,14.6839416 139.4485,17.9239416 137.0005,21.9559416 L137.0005,0.139941635 L131.4565,0.139941635 L131.4565,52.6999416 Z M191.0805,53.5639416 C198.1365,53.5639416 202.6725,50.7559416 206.4165,46.5799416 L202.9605,43.4839416 C199.9365,46.6519416 196.3365,48.7399416 191.2245,48.7399416 C184.6005,48.7399416 178.9125,44.2039416 178.1205,36.1399416 L207.6405,36.1399416 C207.7125,35.4919416 207.7125,35.0599416 207.7125,34.3399416 C207.7125,23.4679416 201.3765,14.6839416 190.3605,14.6839416 C180.0645,14.6839416 172.5045,23.3239416 172.5045,34.0519416 L172.5045,34.1959416 C172.5045,45.7159416 180.8565,53.5639416 191.0805,53.5639416 Z M178.1205,32.0359416 C178.8405,24.7639416 183.7365,19.3639416 190.2165,19.3639416 C197.6325,19.3639416 201.5205,25.2679416 202.0965,32.0359416 L178.1205,32.0359416 Z" id="on-the-road" fill-opacity="0.8" sketch:type="MSShapeGroup"></path>
            <path d="M231.125,52.6999416 L239.837,52.6999416 L239.837,38.2279416 C239.837,28.1479416 245.165,23.1799416 252.797,23.1799416 L253.301,23.1799416 L253.301,13.9639416 C246.605,13.6759416 242.213,17.5639416 239.837,23.2519416 L239.837,14.6839416 L231.125,14.6839416 L231.125,52.6999416 Z" id="Path" sketch:type="MSShapeGroup"></path>
            <path d="M276.637,53.5639416 C288.373,53.5639416 297.013,44.5639416 297.013,33.7639416 L297.013,33.6199416 C297.013,22.7479416 288.445,13.8919416 276.781,13.8919416 C265.117,13.8919416 256.477,22.8919416 256.477,33.7639416 L256.477,33.9079416 C256.477,44.7079416 265.045,53.5639416 276.637,53.5639416 Z M276.781,45.9319416 C270.013,45.9319416 265.189,40.3879416 265.189,33.7639416 L265.189,33.6199416 C265.189,26.9959416 269.653,21.5239416 276.637,21.5239416 C283.477,21.5239416 288.301,27.0679416 288.301,33.7639416 L288.301,33.9079416 C288.301,40.4599416 283.837,45.9319416 276.781,45.9319416 Z" id="Path" sketch:type="MSShapeGroup"></path>
            <path d="M315.813,53.4919416 C321.645,53.4919416 325.605,51.0439416 328.197,47.9479416 L328.197,52.6999416 L336.693,52.6999416 L336.693,30.1639416 C336.693,25.1959416 335.397,21.1639416 332.589,18.4279416 C329.925,15.6919416 325.677,14.1799416 319.989,14.1799416 C313.941,14.1799416 309.837,15.4039416 305.661,17.2759416 L307.965,24.1159416 C311.421,22.6759416 314.589,21.7399416 318.837,21.7399416 C324.957,21.7399416 328.269,24.6199416 328.269,30.0199416 L328.269,30.9559416 C325.317,30.0199416 322.293,29.3719416 318.045,29.3719416 C308.757,29.3719416 302.349,33.4039416 302.349,41.6119416 L302.349,41.7559416 C302.349,49.3879416 308.685,53.4919416 315.813,53.4919416 Z M318.261,47.1559416 C314.085,47.1559416 310.845,45.0679416 310.845,41.3959416 L310.845,41.2519416 C310.845,37.2919416 314.157,34.9159416 319.773,34.9159416 C323.229,34.9159416 326.181,35.5639416 328.413,36.4279416 L328.413,39.0199416 C328.413,43.8439416 324.021,47.1559416 318.261,47.1559416 Z" id="Path" sketch:type="MSShapeGroup"></path>
            <path d="M361.829,53.4919416 C368.021,53.4919416 371.981,50.3239416 374.789,46.3639416 L374.789,52.6999416 L383.501,52.6999416 L383.501,0.139941635 L374.789,0.139941635 L374.789,20.5879416 C372.053,16.9879416 368.093,13.8919416 361.829,13.8919416 C352.757,13.8919416 344.189,21.0199416 344.189,33.6199416 L344.189,33.7639416 C344.189,46.3639416 352.901,53.4919416 361.829,53.4919416 Z M363.917,45.9319416 C358.013,45.9319416 352.973,41.1079416 352.973,33.7639416 L352.973,33.6199416 C352.973,26.0599416 357.941,21.4519416 363.917,21.4519416 C369.749,21.4519416 374.933,26.2759416 374.933,33.6199416 L374.933,33.7639416 C374.933,41.0359416 369.749,45.9319416 363.917,45.9319416 Z" id="Path" sketch:type="MSShapeGroup"></path>
        </g>
    </g>
</svg>