<?xml version="1.0" encoding="utf-8"?>
<!-- Generator: Adobe Illustrator 15.0.2, SVG Export Plug-In . SVG Version: 6.00 Build 0)  -->
<!DOCTYPE svg PUBLIC "-//W3C//DTD SVG 1.1//EN" "http://www.w3.org/Graphics/SVG/1.1/DTD/svg11.dtd">
<svg version="1.1" id="Layer_1" xmlns="http://www.w3.org/2000/svg" xmlns:xlink="http://www.w3.org/1999/xlink" x="0px" y="0px"
	 width="250px" height="187px" viewBox="0 0 250 187" enable-background="new 0 0 250 187" xml:space="preserve">
<g>
	<path fill="#FFFFFF" d="M64.294,51.53c-3.691,0-5.123-3.014-5.123-7.383v-9.417c0-2.335-1.206-4.293-3.842-4.293h-4.897v20.792
		H41.09V1.055h15.444c6.855,0,11.451,3.917,11.451,10.924v7.082c0,3.767-1.732,6.554-5.65,7.759c3.917,1.055,5.801,4.37,5.801,7.609
		v9.191c0,2.335,0.678,3.917,1.808,5.123v2.787H64.294z M58.87,12.355c0-2.26-0.979-3.616-3.315-3.616h-5.123v14.766h4.747
		c2.411,0,3.691-1.281,3.691-3.993V12.355z"/>
	<path fill="#FFFFFF" d="M86.665,52.358c-8.136,0-14.163-5.198-14.163-12.731V1.055h9.492v38.572c0,2.938,1.658,4.595,4.671,4.595
		c3.089,0,4.746-1.657,4.746-4.595V1.055h9.116v38.572C100.527,47.16,94.801,52.358,86.665,52.358z"/>
	<path fill="#FFFFFF" d="M127.245,51.229l-9.719-21.396l-3.541-7.986v29.381h-8.588V1.055h8.061l9.266,21.772l3.315,7.986V1.055
		h8.438v50.174H127.245z"/>
	<path fill="#FFFFFF" d="M161.309,51.229l-9.719-21.396l-3.541-7.986v29.381h-8.588V1.055h8.061l9.267,21.772l3.314,7.986V1.055
		h8.438v50.174H161.309z"/>
	<path fill="#FFFFFF" d="M173.546,51.229V1.055h9.342v50.174H173.546z"/>
	<path fill="#FFFFFF" d="M209.661,51.229l-9.719-21.396l-3.541-7.986v29.381h-8.588V1.055h8.061l9.267,21.772l3.314,7.986V1.055
		h8.438v50.174H209.661z"/>
	<path fill="#FFFFFF" d="M244.877,51.229l-1.281-3.993c-1.657,3.315-5.123,5.123-9.19,5.123c-8.287,0-12.882-5.876-12.882-13.109
		V13.033C221.523,6.178,226.797,0,235.837,0s13.862,5.952,13.862,13.033v5.198h-8.965v-5.575c0-2.411-1.506-4.521-4.821-4.521
		c-3.314,0-4.896,2.185-4.896,4.671v26.744c0,2.486,1.733,4.67,4.972,4.67c3.314,0,4.972-2.184,4.972-4.67v-7.006h-4.897v-6.78H250
		v25.463H244.877z"/>
	<path fill="#D7D9D9" d="M64.828,74.568v43.619h-7.157V74.568H47.35v-6.554h27.724v6.554H64.828z"/>
	<path fill="#D7D9D9" d="M92.91,119.317c-9.417,0-14.012-6.177-14.012-14.389V81.273c0-8.136,4.596-14.313,14.012-14.313
		c9.492,0,14.012,6.177,14.012,14.313v23.656C106.922,113.14,102.402,119.317,92.91,119.317z M99.841,80.67
		c0-4.294-2.26-7.383-6.931-7.383s-6.855,3.089-6.855,7.383v24.861c0,4.293,2.184,7.383,6.855,7.383s6.931-3.09,6.931-7.383V80.67z"
		/>
	<path fill="#D7D9D9" d="M146.041,118.188h-6.931l-6.328-34.579l-6.78,34.579h-6.931l-8.814-50.173h7.232l5.273,37.064l7.082-37.064
		h6.479l6.479,37.064l5.499-37.064h7.007L146.041,118.188z"/>
	<path fill="#D7D9D9" d="M176.329,118.188l-2.637-12.28h-10.848l-2.637,12.28h-6.931l11.375-50.173h7.534l11.376,50.173H176.329z
		 M168.269,79.239l-4.144,20.567h8.287L168.269,79.239z"/>
	<path fill="#D7D9D9" d="M215.063,118.715c-5.65,0-7.609-1.582-7.609-6.78v-9.793c0-3.466-1.582-5.801-5.198-5.801h-7.082v21.847
		h-7.157V68.014h14.54c8.136,0,11.752,4.068,11.752,11.225v5.5c0,4.897-1.657,7.834-6.479,8.814
		c4.746,0.753,6.705,4.746,6.705,8.739v9.116c0,1.356,0.603,1.959,2.109,1.959v5.349H215.063z M207.153,79.088
		c0-2.863-1.205-4.897-4.595-4.897h-7.383v16.725h6.629c3.466,0,5.349-1.959,5.349-5.726V79.088z"/>
	<path fill="#D7D9D9" d="M235.611,118.188h-14.163V68.014h14.163c9.342,0,13.41,5.8,13.41,13.56v23.053
		C249.021,112.386,244.953,118.188,235.611,118.188z M241.939,81.951c0-4.747-2.109-7.383-6.78-7.383h-6.554v37.065h6.554
		c4.671,0,6.78-2.637,6.78-7.308V81.951z"/>
	<path fill="#D7D9D9" d="M14.917,185.146H0v-50.173h14.54c8.136,0,11.602,4.068,11.602,11.225v4.068c0,5.199-2.109,8.136-6.404,9.04
		c4.897,0.98,6.931,4.37,6.931,9.266v5.35C26.669,181.078,23.053,185.146,14.917,185.146z M19.135,146.047
		c0-2.863-1.13-4.897-4.52-4.897H7.157v15.82h6.629c3.541,0,5.349-1.958,5.349-5.65V146.047z M19.512,168.272
		c0-3.691-1.883-5.651-5.349-5.651H7.157v16.349h7.759c3.39,0,4.596-2.034,4.596-4.821V168.272z"/>
	<path fill="#D7D9D9" d="M45.846,186.277c-9.417,0-14.012-6.178-14.012-14.389v-23.656c0-8.136,4.596-14.313,14.012-14.313
		c9.493,0,14.013,6.177,14.013,14.313v23.656C59.859,180.099,55.339,186.277,45.846,186.277z M52.777,147.629
		c0-4.294-2.26-7.383-6.931-7.383c-4.67,0-6.855,3.089-6.855,7.383v24.861c0,4.293,2.185,7.383,6.855,7.383
		c4.671,0,6.931-3.09,6.931-7.383V147.629z"/>
	<path fill="#D7D9D9" d="M81.062,164.957v20.19h-7.082v-20.19l-12.129-29.983h7.684l8.211,23.127l8.212-23.127h7.157L81.062,164.957
		z"/>
	<path fill="#D7D9D9" d="M97.128,185.146v-50.173h7.082v43.695h15.896v6.479H97.128z"/>
	<path fill="#D7D9D9" d="M137.407,186.277c-8.287,0-13.786-5.424-13.786-12.732v-3.465h7.082v2.335c0,5.123,2.335,7.76,6.78,7.76
		c4.37,0,6.63-2.637,6.63-6.479c0-4.444-1.959-7.232-8.287-11.225c-5.65-3.616-11.602-8.513-11.602-15.746
		c0-7.156,4.746-12.806,13.259-12.806c8.137,0,13.334,5.349,13.334,12.731v3.239h-6.78v-2.334c0-4.22-2.034-7.534-6.78-7.534
		c-3.917,0-5.952,2.335-5.952,5.726c0,4.444,2.034,6.78,9.267,11.452c7.307,4.746,10.622,8.964,10.622,15.443
		C151.193,180.928,145.317,186.277,137.407,186.277z"/>
	<path fill="#D7D9D9" d="M171.982,141.527v43.619h-7.157v-43.619h-10.321v-6.554h27.724v6.554H171.982z"/>
	<path fill="#D7D9D9" d="M200.064,186.277c-9.417,0-14.012-6.178-14.012-14.389v-23.656c0-8.136,4.596-14.313,14.012-14.313
		c9.493,0,14.013,6.177,14.013,14.313v23.656C214.077,180.099,209.557,186.277,200.064,186.277z M206.995,147.629
		c0-4.294-2.26-7.383-6.931-7.383c-4.67,0-6.855,3.089-6.855,7.383v24.861c0,4.293,2.185,7.383,6.855,7.383
		c4.671,0,6.931-3.09,6.931-7.383V147.629z"/>
	<path fill="#D7D9D9" d="M243.372,185.146l-12.431-24.409l-4.219-8.814v33.223h-6.78v-50.173h5.801l11.903,24.86l3.993,8.814
		v-33.675h6.78v50.173H243.372z"/>
</g>
</svg>
