<?xml version="1.0" encoding="utf-8"?>
<!-- Generator: Adobe Illustrator 15.0.2, SVG Export Plug-In . SVG Version: 6.00 Build 0)  -->
<!DOCTYPE svg PUBLIC "-//W3C//DTD SVG 1.1//EN" "http://www.w3.org/Graphics/SVG/1.1/DTD/svg11.dtd">
<svg version="1.1" id="Layer_1" xmlns="http://www.w3.org/2000/svg" xmlns:xlink="http://www.w3.org/1999/xlink" x="0px" y="0px"
	 width="506.817px" height="37px" viewBox="0 0 506.817 37" enable-background="new 0 0 506.817 37" xml:space="preserve">
<g>
	<path fill="#FFFFFF" d="M16.773,37.25c-2.668,0-3.703-2.178-3.703-5.337v-6.807c0-1.688-0.871-3.104-2.777-3.104h-3.54v15.031H0
		V0.762h11.164c4.956,0,8.277,2.832,8.277,7.896v5.119c0,2.723-1.252,4.738-4.084,5.609c2.832,0.762,4.193,3.159,4.193,5.5v6.644
		c0,1.688,0.49,2.832,1.307,3.703v2.015H16.773z M12.852,8.931c0-1.634-0.708-2.614-2.396-2.614H6.753v10.674h3.431
		c1.743,0,2.668-0.926,2.668-2.887V8.931z"/>
	<path fill="#FFFFFF" d="M33.209,37.849c-5.882,0-10.238-3.758-10.238-9.204V0.762h6.862v27.883c0,2.124,1.198,3.322,3.376,3.322
		c2.232,0,3.431-1.198,3.431-3.322V0.762h6.589v27.883C43.229,34.091,39.09,37.849,33.209,37.849z"/>
	<path fill="#FFFFFF" d="M62.806,37.032l-7.025-15.466l-2.56-5.772v21.239h-6.208V0.762h5.827l6.699,15.739l2.396,5.772V0.762h6.099
		v36.27H62.806z"/>
	<path fill="#FFFFFF" d="M87.688,37.032l-7.025-15.466l-2.56-5.772v21.239h-6.208V0.762h5.827l6.699,15.739l2.396,5.772V0.762h6.099
		v36.27H87.688z"/>
	<path fill="#FFFFFF" d="M96.804,37.032V0.762h6.753v36.27H96.804z"/>
	<path fill="#FFFFFF" d="M123.178,37.032l-7.025-15.466l-2.56-5.772v21.239h-6.208V0.762h5.827l6.699,15.739l2.396,5.772V0.762
		h6.099v36.27H123.178z"/>
	<path fill="#FFFFFF" d="M148.894,37.032l-0.926-2.886c-1.198,2.396-3.703,3.703-6.644,3.703c-5.99,0-9.312-4.248-9.312-9.476V9.421
		c0-4.956,3.812-9.421,10.347-9.421s10.021,4.302,10.021,9.421v3.757h-6.48v-4.03c0-1.743-1.089-3.268-3.485-3.268
		c-2.396,0-3.54,1.58-3.54,3.376v19.333c0,1.797,1.252,3.376,3.594,3.376c2.396,0,3.594-1.58,3.594-3.376v-5.065h-3.54v-4.901
		h10.075v18.407H148.894z"/>
	<path fill="#D8DADB" d="M176.612,5.5v31.532h-5.173V5.5h-7.461V0.762h20.041V5.5H176.612z"/>
	<path fill="#D8DADB" d="M197.17,37.849c-6.808,0-10.129-4.466-10.129-10.401v-17.1C187.041,4.465,190.363,0,197.17,0
		c6.862,0,10.129,4.465,10.129,10.347v17.1C207.3,33.383,204.032,37.849,197.17,37.849z M202.181,9.911
		c0-3.104-1.634-5.337-5.01-5.337s-4.956,2.233-4.956,5.337v17.972c0,3.104,1.58,5.337,4.956,5.337s5.01-2.233,5.01-5.337V9.911z"/>
	<path fill="#D8DADB" d="M235.847,37.032h-5.011l-4.574-24.997l-4.901,24.997h-5.01l-6.372-36.27h5.228l3.812,26.794l5.119-26.794
		h4.684l4.684,26.794l3.976-26.794h5.064L235.847,37.032z"/>
	<path fill="#D8DADB" d="M258.055,37.032l-1.906-8.877h-7.842l-1.906,8.877h-5.011l8.224-36.27h5.446l8.223,36.27H258.055z
		 M252.228,8.876l-2.995,14.867h5.99L252.228,8.876z"/>
	<path fill="#D8DADB" d="M286.308,37.413c-4.084,0-5.5-1.144-5.5-4.901v-7.08c0-2.505-1.144-4.193-3.758-4.193h-5.119v15.793h-5.174
		V0.762h10.511c5.882,0,8.496,2.941,8.496,8.114v3.976c0,3.54-1.198,5.664-4.684,6.372c3.431,0.545,4.847,3.431,4.847,6.317v6.589
		c0,0.98,0.436,1.416,1.524,1.416v3.867H286.308z M280.59,8.768c0-2.069-0.871-3.54-3.322-3.54h-5.337v12.09h4.792
		c2.506,0,3.867-1.416,3.867-4.139V8.768z"/>
	<path fill="#D8DADB" d="M301.419,37.032h-10.238V0.762h10.238c6.753,0,9.694,4.193,9.694,9.803v16.664
		C311.113,32.838,308.172,37.032,301.419,37.032z M305.994,10.837c0-3.431-1.525-5.337-4.901-5.337h-4.738v26.794h4.738
		c3.376,0,4.901-1.906,4.901-5.283V10.837z"/>
	<path fill="#D8DADB" d="M336.218,37.032h-10.783V0.762h10.511c5.882,0,8.387,2.941,8.387,8.114v2.941
		c0,3.758-1.524,5.881-4.629,6.535c3.54,0.708,5.01,3.159,5.01,6.698v3.867C344.713,34.091,342.1,37.032,336.218,37.032z
		 M339.268,8.768c0-2.069-0.817-3.54-3.268-3.54h-5.392v11.436h4.792c2.56,0,3.867-1.416,3.867-4.084V8.768z M339.54,24.833
		c0-2.668-1.362-4.084-3.867-4.084h-5.064v11.817h5.609c2.45,0,3.322-1.47,3.322-3.485V24.833z"/>
	<path fill="#D8DADB" d="M358.851,37.849c-6.808,0-10.13-4.466-10.13-10.401v-17.1c0-5.882,3.322-10.347,10.13-10.347
		c6.861,0,10.129,4.465,10.129,10.347v17.1C368.979,33.383,365.712,37.849,358.851,37.849z M363.86,9.911
		c0-3.104-1.634-5.337-5.01-5.337c-3.377,0-4.956,2.233-4.956,5.337v17.972c0,3.104,1.579,5.337,4.956,5.337
		c3.376,0,5.01-2.233,5.01-5.337V9.911z"/>
	<path fill="#D8DADB" d="M384.576,22.437v14.595h-5.119V22.437l-8.768-21.675h5.555l5.936,16.719l5.937-16.719h5.173L384.576,22.437
		z"/>
	<path fill="#D8DADB" d="M396.437,37.032V0.762h5.119v31.586h11.491v4.684H396.437z"/>
	<path fill="#D8DADB" d="M425.795,37.849c-5.99,0-9.966-3.921-9.966-9.204V26.14h5.119v1.688c0,3.703,1.688,5.609,4.901,5.609
		c3.158,0,4.792-1.906,4.792-4.684c0-3.213-1.416-5.228-5.99-8.114c-4.084-2.614-8.387-6.154-8.387-11.382
		c0-5.173,3.431-9.258,9.585-9.258c5.882,0,9.639,3.866,9.639,9.204v2.341h-4.901V9.857c0-3.05-1.47-5.446-4.9-5.446
		c-2.832,0-4.303,1.688-4.303,4.139c0,3.213,1.471,4.901,6.698,8.278c5.283,3.431,7.679,6.48,7.679,11.164
		C435.761,33.982,431.513,37.849,425.795,37.849z"/>
	<path fill="#D8DADB" d="M451.031,5.5v31.532h-5.174V5.5h-7.461V0.762h20.041V5.5H451.031z"/>
	<path fill="#D8DADB" d="M471.589,37.849c-6.808,0-10.13-4.466-10.13-10.401v-17.1c0-5.882,3.322-10.347,10.13-10.347
		c6.861,0,10.129,4.465,10.129,10.347v17.1C481.718,33.383,478.45,37.849,471.589,37.849z M476.599,9.911
		c0-3.104-1.634-5.337-5.01-5.337c-3.377,0-4.956,2.233-4.956,5.337v17.972c0,3.104,1.579,5.337,4.956,5.337
		c3.376,0,5.01-2.233,5.01-5.337V9.911z"/>
	<path fill="#D8DADB" d="M503.169,37.032l-8.986-17.645l-3.05-6.372v24.016h-4.9V0.762h4.193l8.604,17.971l2.887,6.372V0.762h4.901
		v36.27H503.169z"/>
</g>
</svg>
